<svg id="ccpa.svg" xmlns="http://www.w3.org/2000/svg" width="2867" height="2867" viewBox="0 0 2867 2867">
  <defs>
    <style>
      .cls-1 {
        fill: #294a6d;
      }

      .cls-2 {
        fill: #fff;
      }

      .cls-3 {
        fill: #f5c543;
        fill-rule: evenodd;
      }
    </style>
  </defs>
  <circle class="cls-1" cx="1433.5" cy="1433.5" r="1433.5"/>
  <circle class="cls-2" cx="1433.5" cy="1529.5" r="444.5"/>
  <path id="Form_1" data-name="Form 1" class="cls-3" d="M1792.77,1155.4V954.779c0-283.657-234.5-357.882-358.46-357.882A428.042,428.042,0,0,0,1258,640.413c-83.27,41.625-182.58,129.822-182.58,314.366V1165.52C975.9,1252.82,915,1379.53,915,1531.12c0,294.13,228.67,494.83,525,494.83s525-200.84,525-494.83C1965,1373.59,1899.3,1242.87,1792.77,1155.4ZM1200.83,954.779c0-224.277,209.57-232.863,233.34-232.863S1667.5,730.5,1667.5,954.779V1080.4c-68.35-28.61-145.3-44.12-227.5-44.12-86.93,0-167.95,17.4-239.17,49.25V954.779Zm473.82,756.371c-1.9,1.31-12.98,8.44-14.59,14.55s0.88,10.63,0,16.16a80.949,80.949,0,0,1-10.21,18.77c-1.45,1.9,2.77,5.68,2.63,8.01s-1.46,7.13,0,9.31,7.58,2.91,7.87,5.39,2.92,6.4-2.47,9.31a11.237,11.237,0,0,1-8.9,1.89c-2.04,0-47.4,8.15-50.9,6.55a43.774,43.774,0,0,0-20.12,1.17,119.543,119.543,0,0,1-32.96,4.36c-1.75-2.03-1.75-5.67-3.21-6.98a7.56,7.56,0,0,1-4.08-8.15,48.2,48.2,0,0,0-3.36-20.67c-1.75-1.89-15.6-15.72-18.08-17.46s-13.56-12.81-16.62-13.1-12.55,0-13.86-4.51,0-13.1-2.77-13.39-15.6,3.49-17.06,2.76-15.46-6.69-15.75-9.02a25.909,25.909,0,0,0-8.75-10.19c-2.77-1.31-4.09-3.78-7.73-3.35s-8.17,2.04-10.06,0a9.2,9.2,0,0,0-8.75-3.2,76.8,76.8,0,0,1-19.4-2.18c-2.19,0-8.9-5.1-6.85-9.17s3.35-3.35,2.91-6.11-3.2-7.72-2.62-10.48,2.33-5.82,2.04-7.13-12.25-5.97-11.96-9.46,3.79-5.39,3.5-6.84-22.46-15.72-23.33-24.6-14.59-21.83-16.92-25.03a22.967,22.967,0,0,1-3.06-17.76c2.19-4.8,6.56-11.06,5.54-14.55s-7.44-7.28-10.35-7.57c0,0-13.71-6.11-13.71-14.56a35.878,35.878,0,0,0-1.02-13.09,33.12,33.12,0,0,1,0-14.56c1.16,0,6.71,11.94,8.89,12.95s4.23,3.64,4.96,1.9a20,20,0,0,0-1.46-11.94c-1.75-1.6-2.77-2.03-3.93-3.34s0-5.39-2.34-6.26-4.52-1.6-3.5-3.93,3.5-1.75,6.27-3.5,1.02-5.67-2.77-6.69-6.56-3.49-6.71,0,2.63,16.15,1.17,16.15-7.29-6.25-10.5-8.15-10.5-2.76-11.37-4.07,3.5-7.86,2.62-9.75a41.723,41.723,0,0,0-4.81-6.11c-0.88-1.02,0-4.95-1.31-6.12a211.835,211.835,0,0,1-25.23-29.98c0-3.49,3.35-10.48,2.91-11.79s-6.85-6.98-5.83-12.08,4.96-12.8,3.94-17.17a125.953,125.953,0,0,0-13.42-27.8c-3.06-2.91-9.62-10.91-7.73-16.01s10.21-16.88,12.54-23.58,0-11.78,0-14.55a163.443,163.443,0,0,0,6.13-17.46,20.65,20.65,0,0,0-4.38-12.08c-1.46-1.31-6.12-9.9.15-13.98,0,0,148.02,14.56,163.48,9.61,0,0-7.15,158.78-4.52,161.84s226.91,216.27,227.79,218.31,0,8.73,2.33,11.64,8.61,9.32,8.61,12.37a16.806,16.806,0,0,0,5.68,10.48C1669.54,1706.2,1676.54,1709.84,1674.65,1711.15Z" transform="translate(-7 -7)"/>
</svg>
