<svg id="el_CTRXmL6Lh" data-name="Layer 1" xmlns="http://www.w3.org/2000/svg" viewBox="0 0 1131 812"><style>@-webkit-keyframes kf_el_049PPgg4pD_an_jFGLBCXnG{90%{opacity: 0;}96.67%{opacity: 0.3;}0%{opacity: 0;}100%{opacity: 0.3;}}@keyframes kf_el_049PPgg4pD_an_jFGLBCXnG{90%{opacity: 0;}96.67%{opacity: 0.3;}0%{opacity: 0;}100%{opacity: 0.3;}}@-webkit-keyframes kf_el_EUvoHQSeg2_an_e6SG-0zgI{90%{opacity: 0;}96.67%{opacity: 0.3;}0%{opacity: 0;}100%{opacity: 0.3;}}@keyframes kf_el_EUvoHQSeg2_an_e6SG-0zgI{90%{opacity: 0;}96.67%{opacity: 0.3;}0%{opacity: 0;}100%{opacity: 0.3;}}@-webkit-keyframes kf_el_17cyOYsc1z_an_AswtWLtAeK{83.33%{stroke-dasharray: 146.51;}0%{stroke-dasharray: 146.51;}100%{stroke-dasharray: 146.51;}}@keyframes kf_el_17cyOYsc1z_an_AswtWLtAeK{83.33%{stroke-dasharray: 146.51;}0%{stroke-dasharray: 146.51;}100%{stroke-dasharray: 146.51;}}@-webkit-keyframes kf_el_17cyOYsc1z_an_4_iuDx0Pt{83.33%{stroke-dashoffset: 146.51;}90%{stroke-dashoffset: 0;}0%{stroke-dashoffset: 146.51;}100%{stroke-dashoffset: 0;}}@keyframes kf_el_17cyOYsc1z_an_4_iuDx0Pt{83.33%{stroke-dashoffset: 146.51;}90%{stroke-dashoffset: 0;}0%{stroke-dashoffset: 146.51;}100%{stroke-dashoffset: 0;}}@-webkit-keyframes kf_el_oxE60SGYeT_an_pJ9IpWhdk{76.67%{opacity: 0;}83.33%{opacity: 0.3;}0%{opacity: 0;}100%{opacity: 0.3;}}@keyframes kf_el_oxE60SGYeT_an_pJ9IpWhdk{76.67%{opacity: 0;}83.33%{opacity: 0.3;}0%{opacity: 0;}100%{opacity: 0.3;}}@-webkit-keyframes kf_el_JFUT_4TDEg_an_8hhhyY8j3{76.67%{opacity: 0;}83.33%{opacity: 0.3;}0%{opacity: 0;}100%{opacity: 0.3;}}@keyframes kf_el_JFUT_4TDEg_an_8hhhyY8j3{76.67%{opacity: 0;}83.33%{opacity: 0.3;}0%{opacity: 0;}100%{opacity: 0.3;}}@-webkit-keyframes kf_el_ROvxFJxHfo_an_0IV3EjS1E{76.67%{opacity: 0;}83.33%{opacity: 0.3;}0%{opacity: 0;}100%{opacity: 0.3;}}@keyframes kf_el_ROvxFJxHfo_an_0IV3EjS1E{76.67%{opacity: 0;}83.33%{opacity: 0.3;}0%{opacity: 0;}100%{opacity: 0.3;}}@-webkit-keyframes kf_el_2baIQn6hIW_an_u3CZsD5uTm{70%{stroke-dasharray: 99.87;}0%{stroke-dasharray: 99.87;}100%{stroke-dasharray: 99.87;}}@keyframes kf_el_2baIQn6hIW_an_u3CZsD5uTm{70%{stroke-dasharray: 99.87;}0%{stroke-dasharray: 99.87;}100%{stroke-dasharray: 99.87;}}@-webkit-keyframes kf_el_2baIQn6hIW_an_BB5U-ugtQ{70%{stroke-dashoffset: 99.87;}76.67%{stroke-dashoffset: 0;}0%{stroke-dashoffset: 99.87;}100%{stroke-dashoffset: 0;}}@keyframes kf_el_2baIQn6hIW_an_BB5U-ugtQ{70%{stroke-dashoffset: 99.87;}76.67%{stroke-dashoffset: 0;}0%{stroke-dashoffset: 99.87;}100%{stroke-dashoffset: 0;}}@-webkit-keyframes kf_el_nrjGZHf6qF_an_ujBZxqqA6B{70%{stroke-dasharray: 229.5;}0%{stroke-dasharray: 229.5;}100%{stroke-dasharray: 229.5;}}@keyframes kf_el_nrjGZHf6qF_an_ujBZxqqA6B{70%{stroke-dasharray: 229.5;}0%{stroke-dasharray: 229.5;}100%{stroke-dasharray: 229.5;}}@-webkit-keyframes kf_el_nrjGZHf6qF_an_9ffRN8L2C{70%{stroke-dashoffset: 229.5;}76.67%{stroke-dashoffset: 0;}0%{stroke-dashoffset: 229.5;}100%{stroke-dashoffset: 0;}}@keyframes kf_el_nrjGZHf6qF_an_9ffRN8L2C{70%{stroke-dashoffset: 229.5;}76.67%{stroke-dashoffset: 0;}0%{stroke-dashoffset: 229.5;}100%{stroke-dashoffset: 0;}}@-webkit-keyframes kf_el_nXvRphIKtN_an_F3VU3sD09{63.33%{opacity: 0;}70%{opacity: 0.3;}0%{opacity: 0;}100%{opacity: 0.3;}}@keyframes kf_el_nXvRphIKtN_an_F3VU3sD09{63.33%{opacity: 0;}70%{opacity: 0.3;}0%{opacity: 0;}100%{opacity: 0.3;}}@-webkit-keyframes kf_el_D9BhiB9b-VC_an_-cJacmxHZb{56.67%{stroke-dasharray: 60.01;}0%{stroke-dasharray: 60.01;}100%{stroke-dasharray: 60.01;}}@keyframes kf_el_D9BhiB9b-VC_an_-cJacmxHZb{56.67%{stroke-dasharray: 60.01;}0%{stroke-dasharray: 60.01;}100%{stroke-dasharray: 60.01;}}@-webkit-keyframes kf_el_D9BhiB9b-VC_an_S22Wagi6_{56.67%{stroke-dashoffset: 60.01;}63.33%{stroke-dashoffset: 0;}0%{stroke-dashoffset: 60.01;}100%{stroke-dashoffset: 0;}}@keyframes kf_el_D9BhiB9b-VC_an_S22Wagi6_{56.67%{stroke-dashoffset: 60.01;}63.33%{stroke-dashoffset: 0;}0%{stroke-dashoffset: 60.01;}100%{stroke-dashoffset: 0;}}@-webkit-keyframes kf_el_6jGFbO2Iahw_an_o7l_jErtw{50%{opacity: 0;}56.67%{opacity: 1;}0%{opacity: 0;}100%{opacity: 1;}}@keyframes kf_el_6jGFbO2Iahw_an_o7l_jErtw{50%{opacity: 0;}56.67%{opacity: 1;}0%{opacity: 0;}100%{opacity: 1;}}@-webkit-keyframes kf_el_E0i7d1bqWwb_an_cnG9BNW50W{43.33%{stroke-dasharray: 108.23;}0%{stroke-dasharray: 108.23;}100%{stroke-dasharray: 108.23;}}@keyframes kf_el_E0i7d1bqWwb_an_cnG9BNW50W{43.33%{stroke-dasharray: 108.23;}0%{stroke-dasharray: 108.23;}100%{stroke-dasharray: 108.23;}}@-webkit-keyframes kf_el_E0i7d1bqWwb_an_Nkuvh3VSP{43.33%{stroke-dashoffset: 108.23;}50%{stroke-dashoffset: 0;}0%{stroke-dashoffset: 108.23;}100%{stroke-dashoffset: 0;}}@keyframes kf_el_E0i7d1bqWwb_an_Nkuvh3VSP{43.33%{stroke-dashoffset: 108.23;}50%{stroke-dashoffset: 0;}0%{stroke-dashoffset: 108.23;}100%{stroke-dashoffset: 0;}}@-webkit-keyframes kf_el_Q0lVaj5Ug1V_an_cB7DH6uldD{43.33%{stroke-dasharray: 91.63;}0%{stroke-dasharray: 91.63;}100%{stroke-dasharray: 91.63;}}@keyframes kf_el_Q0lVaj5Ug1V_an_cB7DH6uldD{43.33%{stroke-dasharray: 91.63;}0%{stroke-dasharray: 91.63;}100%{stroke-dasharray: 91.63;}}@-webkit-keyframes kf_el_Q0lVaj5Ug1V_an_-K2OjNAF4{43.33%{stroke-dashoffset: 91.63;}50%{stroke-dashoffset: 0;}0%{stroke-dashoffset: 91.63;}100%{stroke-dashoffset: 0;}}@keyframes kf_el_Q0lVaj5Ug1V_an_-K2OjNAF4{43.33%{stroke-dashoffset: 91.63;}50%{stroke-dashoffset: 0;}0%{stroke-dashoffset: 91.63;}100%{stroke-dashoffset: 0;}}@-webkit-keyframes kf_el_ak9c7iH0Vv_an_rM6KE5kq4{36.67%{opacity: 0;}43.33%{opacity: 0.3;}0%{opacity: 0;}100%{opacity: 0.3;}}@keyframes kf_el_ak9c7iH0Vv_an_rM6KE5kq4{36.67%{opacity: 0;}43.33%{opacity: 0.3;}0%{opacity: 0;}100%{opacity: 0.3;}}@-webkit-keyframes kf_el_jee20xviPY_an_2cLpyhmuj{36.67%{opacity: 0;}43.33%{opacity: 0.3;}0%{opacity: 0;}100%{opacity: 0.3;}}@keyframes kf_el_jee20xviPY_an_2cLpyhmuj{36.67%{opacity: 0;}43.33%{opacity: 0.3;}0%{opacity: 0;}100%{opacity: 0.3;}}@-webkit-keyframes kf_el_kHVMG_NbMRv_an_iAsZAeNGi1{30%{stroke-dasharray: 146.51;}0%{stroke-dasharray: 146.51;}100%{stroke-dasharray: 146.51;}}@keyframes kf_el_kHVMG_NbMRv_an_iAsZAeNGi1{30%{stroke-dasharray: 146.51;}0%{stroke-dasharray: 146.51;}100%{stroke-dasharray: 146.51;}}@-webkit-keyframes kf_el_kHVMG_NbMRv_an_05OJT-jFJ{30%{stroke-dashoffset: 146.51;}36.67%{stroke-dashoffset: 0;}0%{stroke-dashoffset: 146.51;}100%{stroke-dashoffset: 0;}}@keyframes kf_el_kHVMG_NbMRv_an_05OJT-jFJ{30%{stroke-dashoffset: 146.51;}36.67%{stroke-dashoffset: 0;}0%{stroke-dashoffset: 146.51;}100%{stroke-dashoffset: 0;}}@-webkit-keyframes kf_el_DoyGuOz5wP_an_9TykaxjtK{23.33%{opacity: 0;}30%{opacity: 0.3;}0%{opacity: 0;}100%{opacity: 0.3;}}@keyframes kf_el_DoyGuOz5wP_an_9TykaxjtK{23.33%{opacity: 0;}30%{opacity: 0.3;}0%{opacity: 0;}100%{opacity: 0.3;}}@-webkit-keyframes kf_el_0qYY-Fh8Rfh_an_1nynO1XPVn{16.67%{stroke-dasharray: 99.87;}0%{stroke-dasharray: 99.87;}100%{stroke-dasharray: 99.87;}}@keyframes kf_el_0qYY-Fh8Rfh_an_1nynO1XPVn{16.67%{stroke-dasharray: 99.87;}0%{stroke-dasharray: 99.87;}100%{stroke-dasharray: 99.87;}}@-webkit-keyframes kf_el_0qYY-Fh8Rfh_an_atlswD1BC{16.67%{stroke-dashoffset: -99.87;}23.33%{stroke-dashoffset: 0;}0%{stroke-dashoffset: -99.87;}100%{stroke-dashoffset: 0;}}@keyframes kf_el_0qYY-Fh8Rfh_an_atlswD1BC{16.67%{stroke-dashoffset: -99.87;}23.33%{stroke-dashoffset: 0;}0%{stroke-dashoffset: -99.87;}100%{stroke-dashoffset: 0;}}@-webkit-keyframes kf_el_3qi6zUBjEu_an_qJy-SC8xi{10%{opacity: 0;}16.67%{opacity: 0.3;}0%{opacity: 0;}100%{opacity: 0.3;}}@keyframes kf_el_3qi6zUBjEu_an_qJy-SC8xi{10%{opacity: 0;}16.67%{opacity: 0.3;}0%{opacity: 0;}100%{opacity: 0.3;}}@-webkit-keyframes kf_el_oSJSoLyJ4sw_an_TO7CogJAJ0{6.67%{stroke-dasharray: 229.5;}0%{stroke-dasharray: 229.5;}100%{stroke-dasharray: 229.5;}}@keyframes kf_el_oSJSoLyJ4sw_an_TO7CogJAJ0{6.67%{stroke-dasharray: 229.5;}0%{stroke-dasharray: 229.5;}100%{stroke-dasharray: 229.5;}}@-webkit-keyframes kf_el_oSJSoLyJ4sw_an_CYGw4GU_8{6.67%{stroke-dashoffset: 229.5;}13.33%{stroke-dashoffset: 0;}0%{stroke-dashoffset: 229.5;}100%{stroke-dashoffset: 0;}}@keyframes kf_el_oSJSoLyJ4sw_an_CYGw4GU_8{6.67%{stroke-dashoffset: 229.5;}13.33%{stroke-dashoffset: 0;}0%{stroke-dashoffset: 229.5;}100%{stroke-dashoffset: 0;}}@-webkit-keyframes kf_el_J__fR-vfR6_an_lvJdlSKhy{0%{opacity: 0;}6.67%{opacity: 0.3;}100%{opacity: 0.3;}}@keyframes kf_el_J__fR-vfR6_an_lvJdlSKhy{0%{opacity: 0;}6.67%{opacity: 0.3;}100%{opacity: 0.3;}}@-webkit-keyframes kf_el_GnAlgJNrCy_an_PgGUyVpfY{13.33%{opacity: 0;}20%{opacity: 0.3;}0%{opacity: 0;}100%{opacity: 0.3;}}@keyframes kf_el_GnAlgJNrCy_an_PgGUyVpfY{13.33%{opacity: 0;}20%{opacity: 0.3;}0%{opacity: 0;}100%{opacity: 0.3;}}#el_CTRXmL6Lh *{-webkit-animation-duration: 1s;animation-duration: 1s;-webkit-animation-iteration-count: 1;animation-iteration-count: 1;-webkit-animation-timing-function: cubic-bezier(0, 0, 1, 1);animation-timing-function: cubic-bezier(0, 0, 1, 1);}#el_oxE60SGYeT{fill: #f2981f;opacity: 0.3;-webkit-animation-fill-mode: forwards;animation-fill-mode: forwards;-webkit-animation-name: kf_el_oxE60SGYeT_an_pJ9IpWhdk;animation-name: kf_el_oxE60SGYeT_an_pJ9IpWhdk;-webkit-animation-timing-function: cubic-bezier(0, 0, 1, 1);animation-timing-function: cubic-bezier(0, 0, 1, 1);}#el_049PPgg4pD{fill: #f2981f;opacity: 0.3;-webkit-animation-fill-mode: forwards;animation-fill-mode: forwards;-webkit-animation-name: kf_el_049PPgg4pD_an_jFGLBCXnG;animation-name: kf_el_049PPgg4pD_an_jFGLBCXnG;-webkit-animation-timing-function: cubic-bezier(0, 0, 1, 1);animation-timing-function: cubic-bezier(0, 0, 1, 1);}#el_EUvoHQSeg2{fill: #f2981f;opacity: 0.3;-webkit-animation-fill-mode: forwards;animation-fill-mode: forwards;-webkit-animation-name: kf_el_EUvoHQSeg2_an_e6SG-0zgI;animation-name: kf_el_EUvoHQSeg2_an_e6SG-0zgI;-webkit-animation-timing-function: cubic-bezier(0, 0, 1, 1);animation-timing-function: cubic-bezier(0, 0, 1, 1);}#el_nXvRphIKtN{fill: #f2981f;opacity: 0.3;-webkit-animation-fill-mode: forwards;animation-fill-mode: forwards;-webkit-animation-name: kf_el_nXvRphIKtN_an_F3VU3sD09;animation-name: kf_el_nXvRphIKtN_an_F3VU3sD09;-webkit-animation-timing-function: cubic-bezier(0, 0, 1, 1);animation-timing-function: cubic-bezier(0, 0, 1, 1);}#el_ROvxFJxHfo{fill: #f2981f;opacity: 0.3;-webkit-animation-fill-mode: forwards;animation-fill-mode: forwards;-webkit-animation-name: kf_el_ROvxFJxHfo_an_0IV3EjS1E;animation-name: kf_el_ROvxFJxHfo_an_0IV3EjS1E;-webkit-animation-timing-function: cubic-bezier(0, 0, 1, 1);animation-timing-function: cubic-bezier(0, 0, 1, 1);}#el_JFUT_4TDEg{fill: #f2981f;opacity: 0.3;-webkit-animation-fill-mode: forwards;animation-fill-mode: forwards;-webkit-animation-name: kf_el_JFUT_4TDEg_an_8hhhyY8j3;animation-name: kf_el_JFUT_4TDEg_an_8hhhyY8j3;-webkit-animation-timing-function: cubic-bezier(0, 0, 1, 1);animation-timing-function: cubic-bezier(0, 0, 1, 1);}#el_17cyOYsc1z{fill: none;stroke: #3f3d56;-webkit-animation-fill-mode: forwards, forwards;animation-fill-mode: forwards, forwards;-webkit-animation-name: kf_el_17cyOYsc1z_an_4_iuDx0Pt, kf_el_17cyOYsc1z_an_AswtWLtAeK;animation-name: kf_el_17cyOYsc1z_an_4_iuDx0Pt, kf_el_17cyOYsc1z_an_AswtWLtAeK;-webkit-animation-timing-function: cubic-bezier(0, 0, 1, 1), cubic-bezier(0, 0, 1, 1);animation-timing-function: cubic-bezier(0, 0, 1, 1), cubic-bezier(0, 0, 1, 1);}#el_2baIQn6hIW{fill: none;stroke: #3f3d56;-webkit-animation-fill-mode: forwards, forwards;animation-fill-mode: forwards, forwards;-webkit-animation-name: kf_el_2baIQn6hIW_an_BB5U-ugtQ, kf_el_2baIQn6hIW_an_u3CZsD5uTm;animation-name: kf_el_2baIQn6hIW_an_BB5U-ugtQ, kf_el_2baIQn6hIW_an_u3CZsD5uTm;-webkit-animation-timing-function: cubic-bezier(0, 0, 1, 1), cubic-bezier(0, 0, 1, 1);animation-timing-function: cubic-bezier(0, 0, 1, 1), cubic-bezier(0, 0, 1, 1);}#el_nrjGZHf6qF{fill: none;stroke: #3f3d56;-webkit-animation-fill-mode: forwards, forwards;animation-fill-mode: forwards, forwards;-webkit-animation-name: kf_el_nrjGZHf6qF_an_9ffRN8L2C, kf_el_nrjGZHf6qF_an_ujBZxqqA6B;animation-name: kf_el_nrjGZHf6qF_an_9ffRN8L2C, kf_el_nrjGZHf6qF_an_ujBZxqqA6B;-webkit-animation-timing-function: cubic-bezier(0, 0, 1, 1), cubic-bezier(0, 0, 1, 1);animation-timing-function: cubic-bezier(0, 0, 1, 1), cubic-bezier(0, 0, 1, 1);}#el_DoyGuOz5wP{fill: #f2981f;opacity: 0.3;-webkit-animation-fill-mode: forwards;animation-fill-mode: forwards;-webkit-animation-name: kf_el_DoyGuOz5wP_an_9TykaxjtK;animation-name: kf_el_DoyGuOz5wP_an_9TykaxjtK;-webkit-animation-timing-function: cubic-bezier(0, 0, 1, 1);animation-timing-function: cubic-bezier(0, 0, 1, 1);}#el_jee20xviPY{fill: #f2981f;opacity: 0.3;-webkit-animation-fill-mode: forwards;animation-fill-mode: forwards;-webkit-animation-name: kf_el_jee20xviPY_an_2cLpyhmuj;animation-name: kf_el_jee20xviPY_an_2cLpyhmuj;-webkit-animation-timing-function: cubic-bezier(0, 0, 1, 1);animation-timing-function: cubic-bezier(0, 0, 1, 1);}#el_ak9c7iH0Vv{fill: #f2981f;opacity: 0.3;-webkit-animation-fill-mode: forwards;animation-fill-mode: forwards;-webkit-animation-name: kf_el_ak9c7iH0Vv_an_rM6KE5kq4;animation-name: kf_el_ak9c7iH0Vv_an_rM6KE5kq4;-webkit-animation-timing-function: cubic-bezier(0, 0, 1, 1);animation-timing-function: cubic-bezier(0, 0, 1, 1);}#el_3qi6zUBjEu{fill: #f2981f;opacity: 0.3;-webkit-animation-fill-mode: forwards;animation-fill-mode: forwards;-webkit-animation-name: kf_el_3qi6zUBjEu_an_qJy-SC8xi;animation-name: kf_el_3qi6zUBjEu_an_qJy-SC8xi;-webkit-animation-timing-function: cubic-bezier(0, 0, 1, 1);animation-timing-function: cubic-bezier(0, 0, 1, 1);}#el_J__fR-vfR6{fill: #f2981f;opacity: 0.3;-webkit-animation-fill-mode: forwards;animation-fill-mode: forwards;-webkit-animation-name: kf_el_J__fR-vfR6_an_lvJdlSKhy;animation-name: kf_el_J__fR-vfR6_an_lvJdlSKhy;-webkit-animation-timing-function: cubic-bezier(0, 0, 1, 1);animation-timing-function: cubic-bezier(0, 0, 1, 1);}#el_GnAlgJNrCy{fill: #f2981f;opacity: 0.3;-webkit-animation-fill-mode: forwards;animation-fill-mode: forwards;-webkit-animation-name: kf_el_GnAlgJNrCy_an_PgGUyVpfY;animation-name: kf_el_GnAlgJNrCy_an_PgGUyVpfY;-webkit-animation-timing-function: cubic-bezier(0, 0, 1, 1);animation-timing-function: cubic-bezier(0, 0, 1, 1);}#el_kHVMG_NbMRv{fill: none;stroke: #3f3d56;-webkit-animation-fill-mode: forwards, forwards;animation-fill-mode: forwards, forwards;-webkit-animation-name: kf_el_kHVMG_NbMRv_an_05OJT-jFJ, kf_el_kHVMG_NbMRv_an_iAsZAeNGi1;animation-name: kf_el_kHVMG_NbMRv_an_05OJT-jFJ, kf_el_kHVMG_NbMRv_an_iAsZAeNGi1;-webkit-animation-timing-function: cubic-bezier(0, 0, 1, 1), cubic-bezier(0, 0, 1, 1);animation-timing-function: cubic-bezier(0, 0, 1, 1), cubic-bezier(0, 0, 1, 1);}#el_0qYY-Fh8Rfh{fill: none;stroke: #3f3d56;-webkit-animation-fill-mode: forwards, forwards;animation-fill-mode: forwards, forwards;-webkit-animation-name: kf_el_0qYY-Fh8Rfh_an_atlswD1BC, kf_el_0qYY-Fh8Rfh_an_1nynO1XPVn;animation-name: kf_el_0qYY-Fh8Rfh_an_atlswD1BC, kf_el_0qYY-Fh8Rfh_an_1nynO1XPVn;-webkit-animation-timing-function: cubic-bezier(0, 0, 1, 1), cubic-bezier(0, 0, 1, 1);animation-timing-function: cubic-bezier(0, 0, 1, 1), cubic-bezier(0, 0, 1, 1);}#el_oSJSoLyJ4sw{fill: none;stroke: #3f3d56;-webkit-animation-fill-mode: forwards, forwards;animation-fill-mode: forwards, forwards;-webkit-animation-name: kf_el_oSJSoLyJ4sw_an_CYGw4GU_8, kf_el_oSJSoLyJ4sw_an_TO7CogJAJ0;animation-name: kf_el_oSJSoLyJ4sw_an_CYGw4GU_8, kf_el_oSJSoLyJ4sw_an_TO7CogJAJ0;-webkit-animation-timing-function: cubic-bezier(0, 0, 1, 1), cubic-bezier(0, 0, 1, 1);animation-timing-function: cubic-bezier(0, 0, 1, 1), cubic-bezier(0, 0, 1, 1);}#el_Q0lVaj5Ug1V{fill: none;stroke: #3f3d56;-webkit-animation-fill-mode: forwards, forwards;animation-fill-mode: forwards, forwards;-webkit-animation-name: kf_el_Q0lVaj5Ug1V_an_-K2OjNAF4, kf_el_Q0lVaj5Ug1V_an_cB7DH6uldD;animation-name: kf_el_Q0lVaj5Ug1V_an_-K2OjNAF4, kf_el_Q0lVaj5Ug1V_an_cB7DH6uldD;-webkit-animation-timing-function: cubic-bezier(0, 0, 1, 1), cubic-bezier(0, 0, 1, 1);animation-timing-function: cubic-bezier(0, 0, 1, 1), cubic-bezier(0, 0, 1, 1);}#el_6jGFbO2Iahw{fill: #f2981f;-webkit-animation-fill-mode: forwards;animation-fill-mode: forwards;-webkit-animation-name: kf_el_6jGFbO2Iahw_an_o7l_jErtw;animation-name: kf_el_6jGFbO2Iahw_an_o7l_jErtw;-webkit-animation-timing-function: cubic-bezier(0, 0, 1, 1);animation-timing-function: cubic-bezier(0, 0, 1, 1);}#el_D9BhiB9b-VC{fill: none;stroke: #3f3d56;-webkit-animation-fill-mode: forwards, forwards;animation-fill-mode: forwards, forwards;-webkit-animation-name: kf_el_D9BhiB9b-VC_an_S22Wagi6_, kf_el_D9BhiB9b-VC_an_-cJacmxHZb;animation-name: kf_el_D9BhiB9b-VC_an_S22Wagi6_, kf_el_D9BhiB9b-VC_an_-cJacmxHZb;-webkit-animation-timing-function: cubic-bezier(0, 0, 1, 1), cubic-bezier(0, 0, 1, 1);animation-timing-function: cubic-bezier(0, 0, 1, 1), cubic-bezier(0, 0, 1, 1);}#el_E0i7d1bqWwb{fill: none;stroke: #3f3d56;-webkit-animation-fill-mode: forwards, forwards;animation-fill-mode: forwards, forwards;-webkit-animation-name: kf_el_E0i7d1bqWwb_an_Nkuvh3VSP, kf_el_E0i7d1bqWwb_an_cnG9BNW50W;animation-name: kf_el_E0i7d1bqWwb_an_Nkuvh3VSP, kf_el_E0i7d1bqWwb_an_cnG9BNW50W;-webkit-animation-timing-function: cubic-bezier(0, 0, 1, 1), cubic-bezier(0, 0, 1, 1);animation-timing-function: cubic-bezier(0, 0, 1, 1), cubic-bezier(0, 0, 1, 1);}#el_Lb8p3NpTDZg{fill: #f2f2f2;}#el_fWYyRISCJ2u{fill: #47465a;}#el_dmBPXJaZcH8{opacity: 0.1;}#el_ZEQrK0_yvCr{fill: #47465a;}#el_Bj3SV2bvEDZ{opacity: 0.1;}#el_5lbiPdiCUqt{fill: #47465a;}#el_9ZE_4BT4NuF{opacity: 0.1;}#el_Y76e91RBvap{fill: #47465a;}#el_4zQBrfzBlqZ{opacity: 0.1;}#el_MhEcc_FcuXG{-webkit-transform: translate(-34.5px, -43.89695px);transform: translate(-34.5px, -43.89695px);fill: #7a799c;}#el_tduZEy_ZX6O{fill: #47465a;}#el_D4YrM4EMZCu{-webkit-transform: translate(-34.5px, -43.89695px);transform: translate(-34.5px, -43.89695px);fill: #7a799c;}#el_VIg9fVY6vFW{fill: #47465a;}#el_9d6BSn3ksX7{-webkit-transform: translate(-34.5px, -43.89695px);transform: translate(-34.5px, -43.89695px);fill: #47465a;}#el_Ixqe_proNjx{-webkit-transform: translate(-34.5px, -43.89695px);transform: translate(-34.5px, -43.89695px);fill: #47465a;}#el_BAGsdeIIf74{-webkit-transform: translate(-34.5px, -43.89695px);transform: translate(-34.5px, -43.89695px);fill: #47465a;}#el_erDfZRr-RIC{-webkit-transform: translate(-34.5px, -43.89695px);transform: translate(-34.5px, -43.89695px);fill: #47465a;}#el_krwlVAthWM3{-webkit-transform: translate(-34.5px, -43.89695px);transform: translate(-34.5px, -43.89695px);opacity: 0.1;}#el_Ay9MTMJNXVQ{-webkit-transform: translate(-34.5px, -43.89695px);transform: translate(-34.5px, -43.89695px);fill: #47465a;}#el_VZ_NwadjmeO{fill: #47465a;}#el_tb0ESI7UZa-{-webkit-transform: translate(-34.5px, -43.89695px);transform: translate(-34.5px, -43.89695px);fill: #47465a;}#el_91w_FIwyail{fill: #47465a;}#el_zlLDhS44VUj{-webkit-transform: translate(-34.5px, -43.89695px);transform: translate(-34.5px, -43.89695px);fill: #7a799c;}#el_x8BTSATia2q{fill: #7a799c;}#el_xIFML51KmCZ{opacity: 0.1;}#el_q8vuNc41IcO{fill: #9493b6;}#el_7qI1zbXvD5F{opacity: 0.1;}#el_41JpxZaf1jc{fill: #9493b6;}#el_byJcK9CL9PY{fill: #ff6584;}#el_q0Xz_x1-er4{opacity: 0.1;}#el_UngzRvU02DE{-webkit-transform: translate(-34.5px, -43.89695px);transform: translate(-34.5px, -43.89695px);fill: #fbbebe;}#el_VcdnlHpvYFX{-webkit-transform: translate(-34.5px, -43.89695px);transform: translate(-34.5px, -43.89695px);opacity: 0.1;}#el_yK97EDdJL15{-webkit-transform: translate(-34.5px, -43.89695px);transform: translate(-34.5px, -43.89695px);fill: #fbbebe;}#el_YD9ecmctaY0{-webkit-transform: translate(-34.5px, -43.89695px);transform: translate(-34.5px, -43.89695px);fill: #9493b6;}#el_OD3412PMD5u{-webkit-transform: translate(-34.5px, -43.89695px);transform: translate(-34.5px, -43.89695px);fill: #fbbebe;}#el_lzKpE2pg3cD{-webkit-transform: translate(-34.5px, -43.89695px);transform: translate(-34.5px, -43.89695px);fill: #f2981f;}#el_wv9q0Oo_o-v{-webkit-transform: translate(-34.5px, -43.89695px);transform: translate(-34.5px, -43.89695px);opacity: 0.1;}#el_y9toCZn0Jpj{-webkit-transform: translate(-34.5px, -43.89695px);transform: translate(-34.5px, -43.89695px);fill: #fbbebe;}#el_cOs-3AqY5wT{-webkit-transform: translate(-34.5px, -43.89695px);transform: translate(-34.5px, -43.89695px);fill: #9493b6;}#el_fwrw2vg71yf{-webkit-transform: translate(-34.5px, -43.89695px);transform: translate(-34.5px, -43.89695px);fill: #fbbebe;}#el_P0ChupLkFBQ{-webkit-transform: translate(-34.5px, -43.89695px);transform: translate(-34.5px, -43.89695px);fill: #f2981f;}#el_HpEgRrvBn6r{-webkit-transform: translate(-34.5px, -43.89695px);transform: translate(-34.5px, -43.89695px);fill: #fbbebe;}#el_aVdifxIi4KN{-webkit-transform: translate(-34.5px, -43.89695px);transform: translate(-34.5px, -43.89695px);opacity: 0.1;}#el_MPfYdVDgaax{-webkit-transform: translate(-34.5px, -43.89695px);transform: translate(-34.5px, -43.89695px);fill: #f2981f;}#el_R6XR8UdOWOq{-webkit-transform: translate(-34.5px, -43.89695px);transform: translate(-34.5px, -43.89695px);fill: #ff6584;}</style><title>software engineer</title><rect x="689.32824" y="51.26718" width="80.80153" height="30.0916" id="el_oxE60SGYeT"/><rect x="823.62595" width="80.80153" height="30.0916" id="el_049PPgg4pD"/><rect x="829.19847" y="93.06107" width="80.80153" height="30.0916" id="el_EUvoHQSeg2"/><rect x="570.63359" y="127.61069" width="80.80153" height="30.0916" id="el_nXvRphIKtN"/><rect x="545" y="251.32061" width="80.80153" height="30.0916" id="el_ROvxFJxHfo"/><rect x="667.03817" y="248.53435" width="80.80153" height="30.0916" id="el_JFUT_4TDEg"/><polyline points="823.626 14.856 770.13 65.616 829.198 108.107" stroke-miterlimit="10" id="el_17cyOYsc1z"/><line x1="689.32824" y1="65.61641" x2="611.03435" y2="127.61069" stroke-miterlimit="10" id="el_2baIQn6hIW"/><polyline points="585.401 251.297 611.034 157.702 707.439 248.534" stroke-miterlimit="10" id="el_nrjGZHf6qF"/><rect x="144.32824" y="82.26718" width="80.80153" height="30.0916" id="el_DoyGuOz5wP"/><rect x="278.62595" y="31" width="80.80153" height="30.0916" id="el_jee20xviPY"/><rect x="284.19847" y="124.06107" width="80.80153" height="30.0916" id="el_ak9c7iH0Vv"/><rect x="25.63359" y="158.61069" width="80.80153" height="30.0916" id="el_3qi6zUBjEu"/><rect y="282.32061" width="80.80153" height="30.0916" id="el_J__fR-vfR6"/><rect x="122.03817" y="279.53435" width="80.80153" height="30.0916" id="el_GnAlgJNrCy"/><polyline points="278.626 45.856 225.13 96.616 284.198 139.107" stroke-miterlimit="10" id="el_kHVMG_NbMRv"/><line x1="144.32824" y1="96.61641" x2="66.03435" y2="158.61069" stroke-miterlimit="10" id="el_0qYY-Fh8Rfh"/><polyline points="40.401 282.297 66.034 188.702 162.439 279.534" stroke-miterlimit="10" id="el_oSJSoLyJ4sw"/><line x1="365" y1="139.10687" x2="456.63359" y2="139.10687" stroke-miterlimit="10" id="el_Q0lVaj5Ug1V"/><rect x="415.5" y="123.70611" width="95" height="30" id="el_6jGFbO2Iahw"/><line x1="510.62322" y1="138.70611" x2="570.63359" y2="138.70611" stroke-miterlimit="10" id="el_D9BhiB9b-VC"/><line x1="415.04486" y1="138.70611" x2="359.42748" y2="45.8564" stroke-miterlimit="10" id="el_E0i7d1bqWwb"/><ellipse cx="691" cy="714.20611" rx="440" ry="98" id="el_Lb8p3NpTDZg"/><polygon points="894.984 391.611 852.078 606.582 842.79 606.582 841.768 604.994 838.809 600.39 875.964 399.572 881.604 397.21 894.984 391.611" id="el_fWYyRISCJ2u"/><polygon points="881.604 397.21 841.768 604.994 838.809 600.39 875.964 399.572 881.604 397.21" id="el_dmBPXJaZcH8"/><polygon points="959.564 684.432 948.533 687.988 945.852 688.855 942.313 680.893 881.604 403.96 887.916 402.545 901.177 399.572 959.564 684.432" id="el_ZEQrK0_yvCr"/><polygon points="948.533 687.988 945.852 688.855 942.313 680.893 881.604 403.96 887.916 402.545 948.533 687.988" id="el_Bj3SV2bvEDZ"/><polygon points="433.636 391.611 423.905 670.277 412.753 672.754 411.962 672.931 408.865 667.181 415.058 394.264 421.016 393.415 433.636 391.611" id="el_5lbiPdiCUqt"/><polygon points="421.016 393.415 412.753 672.754 411.962 672.931 408.865 667.181 415.058 394.264 421.016 393.415" id="el_9ZE_4BT4NuF"/><polygon points="491.581 768.917 480.045 770.907 478.753 771.128 475.215 763.609 419.039 399.572 420.658 399.081 429.213 396.476 491.581 768.917" id="el_Y76e91RBvap"/><polygon points="480.045 770.907 478.753 771.128 475.215 763.609 419.039 399.572 420.658 399.081 480.045 770.907" id="el_4zQBrfzBlqZ"/><path d="M770.24611,412.94872l42.95118,54.88207a13.9279,13.9279,0,0,0,12.58842,5.24947l176.3179-20.64984a13.92791,13.92791,0,0,0,12.30779-13.83336v-40.6875Z" id="el_MhEcc_FcuXG"/><path d="M880.3875,377.89835h11.94287a0,0,0,0,1,0,0v17.23649a4.4376,4.4376,0,0,1-4.4376,4.4376H884.8251a4.4376,4.4376,0,0,1-4.4376-4.4376V377.89835A0,0,0,0,1,880.3875,377.89835Z" id="el_tduZEy_ZX6O"/><path d="M453.539,447.89267l42.95118,54.88206a13.92791,13.92791,0,0,0,12.58842,5.24948l176.3179-20.64984A13.92793,13.92793,0,0,0,697.70425,473.541V432.8535Z" id="el_D4YrM4EMZCu"/><path d="M563.68035,412.84229h11.94287a0,0,0,0,1,0,0v17.23649a4.4376,4.4376,0,0,1-4.4376,4.4376H568.118a4.4376,4.4376,0,0,1-4.4376-4.4376V412.84229A0,0,0,0,1,563.68035,412.84229Z" id="el_VIg9fVY6vFW"/><path d="M502.88475,475.68812l524.45934-61.09027a7.71254,7.71254,0,0,0,2.57751-14.54866l-93.81678-47.18187a108.58678,108.58678,0,0,0-59.80247-11.01708L410.3605,389.3598a8.91843,8.91843,0,0,0-5.45875,15.09495l54.25911,55.66844A52.67339,52.67339,0,0,0,502.88475,475.68812Z" id="el_9d6BSn3ksX7"/><path d="M1085.04368,406.31845l-5.61-3.101s-6.05628,4.45811-10.99,23.23965,9.22074.20375,9.22074.20375l6.1926-12.82752Z" id="el_Ixqe_proNjx"/><path d="M1025.02728,578.37955s-5.75027,26.982-8.40424,34.50162c-1.30042,3.68018-7.58157,7.04629-14.54371,9.62064a97.37869,97.37869,0,0,1-19.07325,4.9762c-7.51958.88466-103.94718-14.15451-150.834-24.32806-31.58664-6.85167-35.66943-14.71185-34.97051-19.1086a6.37978,6.37978,0,0,1,1.79588-3.45015s46.44448-31.40532,62.81063-46.44449,48.65613-3.0963,84.0424,3.0963S1025.02728,578.37955,1025.02728,578.37955Z" id="el_BAGsdeIIf74"/><path d="M1079.43367,403.2175s21.6741,14.15451-51.31009,43.34818c0,0-39.669,22.36656-34.50509,114.50318a25.26971,25.26971,0,0,0,3.673,11.702c7.5302,12.3852,23.66634,43.73743-3.22723,47.62992V627.478s48.65613-24.32806,53.96407-45.1175,23.00107-136.23715,31.84764-146.853S1094.47284,408.08311,1079.43367,403.2175Z" id="el_erDfZRr-RIC"/><path d="M1002.07933,622.50181a97.37869,97.37869,0,0,1-19.07325,4.9762c-7.51958.88466-103.94718-14.15451-150.834-24.32806-31.58664-6.85167-35.66943-14.71185-34.97051-19.1086,20.76287,7.09937,88.18264,29.63158,112.378,31.49379,28.75135,2.21164,83.67966,8.36,87.842,4.18C999.02277,618.10507,1000.66379,619.80359,1002.07933,622.50181Z" id="el_krwlVAthWM3"/><path d="M749.45667,806.621l42.0212-191.97054s7.51959-20.3471,24.77039-19.46245L832.17209,603.15s-26.53971-6.1926-32.29,14.1545S757.41858,806.621,757.41858,806.621Z" id="el_Ay9MTMJNXVQ"/><polygon points="815.808 675.143 832.616 557.926 840.136 557.926 822.885 675.143 815.808 675.143" id="el_VZ_NwadjmeO"/><path d="M1011.3151,833.60305l-15.92383-183.124s0-15.4815,7.96192-23.00108,33.66494-28.97011,33.66494-28.97011,6.58694-1.55055,11.89488,13.48861,42.0212,165.43083,42.0212,165.43083l-7.07725,3.0963L1038.29713,607.1309l-31.40532,29.636s-6.19259,11.05821-3.0963,21.23176,14.59684,175.60438,14.59684,175.60438Z" id="el_tb0ESI7UZa-"/><polygon points="927.717 579.158 967.526 590.658 976.373 582.254 953.372 579.158 927.717 579.158" id="el_91w_FIwyail"/><path d="M608.31275,300.20117l6.45492,96.82373,141.10276-13.71218-5.61479-94.64939a9.51952,9.51952,0,0,0-10.30071-8.9223L617.0133,290.08191A9.51953,9.51953,0,0,0,608.31275,300.20117Z" id="el_zlLDhS44VUj"/><polygon points="768.7 367.282 628.039 382.627 622.731 383.206 581.595 356.667 581.595 350.916 721.37 338.328 768.7 367.282" id="el_x8BTSATia2q"/><polygon points="628.039 382.627 622.731 383.206 581.595 356.667 581.595 351.518 628.039 382.627" id="el_xIFML51KmCZ"/><polygon points="583.364 255.373 588.23 341.627 712.082 330.127 707.658 246.084 583.364 255.373" id="el_q8vuNc41IcO"/><polygon points="657.233 365.513 672.272 375.687 717.832 371.263 702.35 361.532 657.233 365.513" id="el_7qI1zbXvD5F"/><polygon points="595.749 353.128 614.769 367.282 736.41 355.782 714.736 341.627 595.749 353.128" id="el_41JpxZaf1jc"/><rect x="811.60543" y="222.4199" width="89.79267" height="89.79267" id="el_byJcK9CL9PY"/><rect x="811.60543" y="222.4199" width="89.79267" height="89.79267" id="el_q0Xz_x1-er4"/><path d="M877.029,307.87069s12.66681,34.30595,0,40.63936,45.38941,0,45.38941,0l16.3613-13.1946s-36.94487-10.55568-31.667-34.83373S877.029,307.87069,877.029,307.87069Z" id="el_UngzRvU02DE"/><path d="M877.029,307.87069s12.66681,34.30595,0,40.63936,45.38941,0,45.38941,0l16.3613-13.1946s-36.94487-10.55568-31.667-34.83373S877.029,307.87069,877.029,307.87069Z" id="el_VcdnlHpvYFX"/><path d="M773.05563,651.98574s47.50054,67.02855,39.58378,85.501-3.69448,30.08368-19.528,36.41708-20.05578,17.94465-6.3334,17.41687,31.667-4.22227,34.30594-8.97232,8.97233-27.44476,17.94465-30.61147S864.89,736.43115,852.751,721.65321s-42.7254-69.21048-40.36292-74.71681S773.05563,651.98574,773.05563,651.98574Z" id="el_yK97EDdJL15"/><path d="M872.279,519.512s-98.16779,6.33341-123.50142,30.08368,22.16692,112.418,27.44476,113.47352,46.445-3.1667,44.86162-14.77794-29.55589-59.11179-29.55589-59.11179,36.41708-13.1946,56.47287-16.3613,42.22271-17.94465,42.22271-17.94465Z" id="el_YD9ecmctaY0"/><path d="M827.41736,504.73406s1.58335,58.584,16.3613,60.69514,0-44.86163,0-44.86163l-.52778-17.94465Z" id="el_OD3412PMD5u"/><path d="M872.279,351.149s-27.44476-7.91676-32.7226,13.19459-6.86119,93.94552-6.86119,93.94552l-9.50011,58.05622s17.41687-5.27784,21.11135-2.63892l22.16692-27.97254Z" id="el_lzKpE2pg3cD"/><path d="M872.279,351.149s-27.44476-7.91676-32.7226,13.19459-6.86119,93.94552-6.86119,93.94552l-9.50011,58.05622s17.41687-5.27784,21.11135-2.63892l22.16692-27.97254Z" id="el_wv9q0Oo_o-v"/><path d="M909.77932,663.22549s18.44475,36.2608,29.52821,35.733,21.63914-7.389,26.917,14.25016-1.05556,15.83352,5.27784,28.50033,7.389,34.83373-4.75,40.11157-23.22249,5.80562-23.75027,0,10.55567-5.80562-2.11114-26.38919-39.58378-58.05622-50.66724-61.75071S909.77932,663.22549,909.77932,663.22549Z" id="el_y9toCZn0Jpj"/><path d="M957.78,497.87287s38.00044,63.33406,13.1946,81.80649-98.69557,53.834-98.69557,53.834,39.58378,26.917,41.69492,35.8893-19.00022,33.25038-26.38919,33.77816-29.02811-24.27805-52.2506-30.61146-37.47265-51.72281-12.139-68.6119,49.0839-44.86162,49.0839-44.86162l-7.3847-40.63369Z" id="el_cOs-3AqY5wT"/><path d="M924.83989,286.664c0,22.44449-22.99133,40.99863-45.43582,40.99863a40.63935,40.63935,0,1,1,0-81.27871C901.84856,246.38388,924.83989,264.21946,924.83989,286.664Z" id="el_fwrw2vg71yf"/><path d="M889.69585,345.34334s36.41708-15.83351,36.41708-17.94465,21.11136,4.75006,25.86141,8.97233,7.389,3.69449,10.55568,12.139-15.83352,87.08433-15.83352,87.08433,10.55568,60.69514,16.3613,66.50076S916.085,516.3453,916.085,516.3453s-34.83373,6.33341-40.63935,8.97233-16.3613,6.3334-14.25016,0,11.08346-11.08346-4.22228-19.00022c0,0,5.27784-25.86141,0-37.47265s-29.55589-53.834-10.02789-84.44541,28.50033-41.69493,28.50033-41.69493S882.30688,348.51005,889.69585,345.34334Z" id="el_P0ChupLkFBQ"/><path d="M901.3071,489.42833S860.14,507.68713,847.737,509.3773s-49.87557,11.19027-29.292,19.63481,51.72281-4.22227,51.72281-4.22227l43.80606-18.47243Z" id="el_HpEgRrvBn6r"/><path d="M945.62933,343.72433s15.20178-7.35331,19.424,18.5081,19.00022,107.66789,0,119.80692-62.80628,31.667-62.80628,31.667-25.8614-17.41686-13.72237-23.75027,41.16713-24.27806,45.3894-30.61146,8.48829-77.027,1.09932-88.63829S945.62933,343.72433,945.62933,343.72433Z" id="el_aVdifxIi4KN"/><path d="M944.58537,337.42659s21.11135-1.05557,25.33362,24.80584,19.00022,107.66789,0,119.80692-62.80627,31.667-62.80627,31.667-25.86141-17.41686-13.72238-23.75027,41.16714-24.27806,45.38941-30.61146S935.613,387.03827,928.22407,375.427,944.58537,337.42659,944.58537,337.42659Z" id="el_MPfYdVDgaax"/><path d="M869.39363,218.61184c-6.47937.88179-13.42907,3.252-16.68936,8.92037-1.59532,2.77365-2.11107,6.02743-3.34,8.98173-3.39144,8.15262-11.628,13.02111-17.57449,19.54846-7.7497,8.50671-11.59829,21.32569-7.02776,31.88657,1.76985,4.08952,4.64406,7.59294,6.82374,11.47953,6.081,10.84307,6.40545,23.86541,6.5784,36.29605l.34006,24.4413c.05193,3.73208.09336,7.53953-1.0303,11.09882s-3.63293,6.89273-7.19212,8.01668a18.64007,18.64007,0,0,0,21.70774-7.41277,19.04939,19.04939,0,0,1-5.82228,16.89942c9.676-2.27871,17.79017-9.31636,22.90211-17.84195s7.4824-18.44239,8.54471-28.32617c.56186-5.22762.75986-10.63308-.8917-15.62468-1.16321-3.51566-3.1921-6.66756-5.1182-9.83032-4.96553-8.15368-9.43689-16.82614-11.03719-26.23773s.00641-19.738,6.11766-27.07224a24.45445,24.45445,0,0,1,19.315-8.85635,21.50289,21.50289,0,0,1,17.9282,10.97538c1.4118,2.65764,3.42145,6.25954,6.28226,5.32575a15.52284,15.52284,0,0,0,1.549-.76054c3.19044-1.45194,6.81442,1.41256,8.22125,4.62315,4.43733,10.12665-3.73777,21.18131-4.58276,32.20513-.786,10.25474,4.93126,19.92613,11.76532,27.612a90.71726,90.71726,0,0,0,44.35273,27.24968,12.44917,12.44917,0,0,1-6.4337-3.99663,84.47007,84.47007,0,0,0,20.75653-1.74c-7.42625-5.59639-14.90482-11.24044-21.10471-18.17083s-11.1103-15.316-12.44738-24.5182c-1.79441-12.34986,2.80533-25.72347-2.45361-37.04082-4.80791-10.34671-16.73195-16.12851-21.0866-26.674-4.42322-10.71155-7.29082-20.01739-19.00212-24.68049C896.96212,220.29875,883.20371,216.73239,869.39363,218.61184Z" id="el_R6XR8UdOWOq"/></svg>