<svg viewBox="0 0 1177 874" version="1.1" xmlns="http://www.w3.org/2000/svg" xmlns:xlink="http://www.w3.org/1999/xlink" id="el_o7Kf_eJ8W"><style>@-webkit-keyframes kf_el_p4lTeQTI65x_an_21sbEX6h3Y{69.33%{stroke-dasharray: 511.87;}0%{stroke-dasharray: 511.87;}100%{stroke-dasharray: 511.87;}}@keyframes kf_el_p4lTeQTI65x_an_21sbEX6h3Y{69.33%{stroke-dasharray: 511.87;}0%{stroke-dasharray: 511.87;}100%{stroke-dasharray: 511.87;}}@-webkit-keyframes kf_el_p4lTeQTI65x_an_klZW-Lirs{69.33%{stroke-dashoffset: 511.87;}76%{stroke-dashoffset: 0;}0%{stroke-dashoffset: 511.87;}100%{stroke-dashoffset: 0;}}@keyframes kf_el_p4lTeQTI65x_an_klZW-Lirs{69.33%{stroke-dashoffset: 511.87;}76%{stroke-dashoffset: 0;}0%{stroke-dashoffset: 511.87;}100%{stroke-dashoffset: 0;}}@-webkit-keyframes kf_el_0Gb0y0vYB8-_an__oEh-waDo{60%{-webkit-transform: translate(610px, 554px) scale(0, 0) translate(-610px, -554px);transform: translate(610px, 554px) scale(0, 0) translate(-610px, -554px);}65.33%{-webkit-transform: translate(610px, 554px) scale(1.2, 1.2) translate(-610px, -554px);transform: translate(610px, 554px) scale(1.2, 1.2) translate(-610px, -554px);}69.33%{-webkit-transform: translate(610px, 554px) scale(1, 1) translate(-610px, -554px);transform: translate(610px, 554px) scale(1, 1) translate(-610px, -554px);}0%{-webkit-transform: translate(610px, 554px) scale(0, 0) translate(-610px, -554px);transform: translate(610px, 554px) scale(0, 0) translate(-610px, -554px);}100%{-webkit-transform: translate(610px, 554px) scale(1, 1) translate(-610px, -554px);transform: translate(610px, 554px) scale(1, 1) translate(-610px, -554px);}}@keyframes kf_el_0Gb0y0vYB8-_an__oEh-waDo{60%{-webkit-transform: translate(610px, 554px) scale(0, 0) translate(-610px, -554px);transform: translate(610px, 554px) scale(0, 0) translate(-610px, -554px);}65.33%{-webkit-transform: translate(610px, 554px) scale(1.2, 1.2) translate(-610px, -554px);transform: translate(610px, 554px) scale(1.2, 1.2) translate(-610px, -554px);}69.33%{-webkit-transform: translate(610px, 554px) scale(1, 1) translate(-610px, -554px);transform: translate(610px, 554px) scale(1, 1) translate(-610px, -554px);}0%{-webkit-transform: translate(610px, 554px) scale(0, 0) translate(-610px, -554px);transform: translate(610px, 554px) scale(0, 0) translate(-610px, -554px);}100%{-webkit-transform: translate(610px, 554px) scale(1, 1) translate(-610px, -554px);transform: translate(610px, 554px) scale(1, 1) translate(-610px, -554px);}}@-webkit-keyframes kf_el_8IYLrV69pPb_an_emsXv41AOH{53.33%{stroke-dasharray: 380.4;}0%{stroke-dasharray: 380.4;}100%{stroke-dasharray: 380.4;}}@keyframes kf_el_8IYLrV69pPb_an_emsXv41AOH{53.33%{stroke-dasharray: 380.4;}0%{stroke-dasharray: 380.4;}100%{stroke-dasharray: 380.4;}}@-webkit-keyframes kf_el_8IYLrV69pPb_an_LOX4s_PwI{53.33%{stroke-dashoffset: 380.4;}60%{stroke-dashoffset: 0;}0%{stroke-dashoffset: 380.4;}100%{stroke-dashoffset: 0;}}@keyframes kf_el_8IYLrV69pPb_an_LOX4s_PwI{53.33%{stroke-dashoffset: 380.4;}60%{stroke-dashoffset: 0;}0%{stroke-dashoffset: 380.4;}100%{stroke-dashoffset: 0;}}@-webkit-keyframes kf_el_C-UukeibMJk_an_CvrmEBVjS{48%{-webkit-transform: translate(979.2025146484375px, 595.8161010742188px) scale(0, 0) translate(-979.2025146484375px, -595.8161010742188px);transform: translate(979.2025146484375px, 595.8161010742188px) scale(0, 0) translate(-979.2025146484375px, -595.8161010742188px);}53.33%{-webkit-transform: translate(979.2025146484375px, 595.8161010742188px) scale(1.2, 1.2) translate(-979.2025146484375px, -595.8161010742188px);transform: translate(979.2025146484375px, 595.8161010742188px) scale(1.2, 1.2) translate(-979.2025146484375px, -595.8161010742188px);}57.33%{-webkit-transform: translate(979.2025146484375px, 595.8161010742188px) scale(1, 1) translate(-979.2025146484375px, -595.8161010742188px);transform: translate(979.2025146484375px, 595.8161010742188px) scale(1, 1) translate(-979.2025146484375px, -595.8161010742188px);}0%{-webkit-transform: translate(979.2025146484375px, 595.8161010742188px) scale(0, 0) translate(-979.2025146484375px, -595.8161010742188px);transform: translate(979.2025146484375px, 595.8161010742188px) scale(0, 0) translate(-979.2025146484375px, -595.8161010742188px);}100%{-webkit-transform: translate(979.2025146484375px, 595.8161010742188px) scale(1, 1) translate(-979.2025146484375px, -595.8161010742188px);transform: translate(979.2025146484375px, 595.8161010742188px) scale(1, 1) translate(-979.2025146484375px, -595.8161010742188px);}}@keyframes kf_el_C-UukeibMJk_an_CvrmEBVjS{48%{-webkit-transform: translate(979.2025146484375px, 595.8161010742188px) scale(0, 0) translate(-979.2025146484375px, -595.8161010742188px);transform: translate(979.2025146484375px, 595.8161010742188px) scale(0, 0) translate(-979.2025146484375px, -595.8161010742188px);}53.33%{-webkit-transform: translate(979.2025146484375px, 595.8161010742188px) scale(1.2, 1.2) translate(-979.2025146484375px, -595.8161010742188px);transform: translate(979.2025146484375px, 595.8161010742188px) scale(1.2, 1.2) translate(-979.2025146484375px, -595.8161010742188px);}57.33%{-webkit-transform: translate(979.2025146484375px, 595.8161010742188px) scale(1, 1) translate(-979.2025146484375px, -595.8161010742188px);transform: translate(979.2025146484375px, 595.8161010742188px) scale(1, 1) translate(-979.2025146484375px, -595.8161010742188px);}0%{-webkit-transform: translate(979.2025146484375px, 595.8161010742188px) scale(0, 0) translate(-979.2025146484375px, -595.8161010742188px);transform: translate(979.2025146484375px, 595.8161010742188px) scale(0, 0) translate(-979.2025146484375px, -595.8161010742188px);}100%{-webkit-transform: translate(979.2025146484375px, 595.8161010742188px) scale(1, 1) translate(-979.2025146484375px, -595.8161010742188px);transform: translate(979.2025146484375px, 595.8161010742188px) scale(1, 1) translate(-979.2025146484375px, -595.8161010742188px);}}@-webkit-keyframes kf_el_ISTiSkK_6Y__an__mFvo20ru3{41.33%{stroke-dasharray: 257.77;}0%{stroke-dasharray: 257.77;}100%{stroke-dasharray: 257.77;}}@keyframes kf_el_ISTiSkK_6Y__an__mFvo20ru3{41.33%{stroke-dasharray: 257.77;}0%{stroke-dasharray: 257.77;}100%{stroke-dasharray: 257.77;}}@-webkit-keyframes kf_el_ISTiSkK_6Y__an__0Y0DoCwk{41.33%{stroke-dashoffset: 257.77;}48%{stroke-dashoffset: 0;}0%{stroke-dashoffset: 257.77;}100%{stroke-dashoffset: 0;}}@keyframes kf_el_ISTiSkK_6Y__an__0Y0DoCwk{41.33%{stroke-dashoffset: 257.77;}48%{stroke-dashoffset: 0;}0%{stroke-dashoffset: 257.77;}100%{stroke-dashoffset: 0;}}@-webkit-keyframes kf_el_ns1INrq3g4H_an_uGTrU8NO4{36%{-webkit-transform: translate(875px, 380px) scale(0, 0) translate(-875px, -380px);transform: translate(875px, 380px) scale(0, 0) translate(-875px, -380px);}41.33%{-webkit-transform: translate(875px, 380px) scale(1.2, 1.2) translate(-875px, -380px);transform: translate(875px, 380px) scale(1.2, 1.2) translate(-875px, -380px);}45.33%{-webkit-transform: translate(875px, 380px) scale(1, 1) translate(-875px, -380px);transform: translate(875px, 380px) scale(1, 1) translate(-875px, -380px);}0%{-webkit-transform: translate(875px, 380px) scale(0, 0) translate(-875px, -380px);transform: translate(875px, 380px) scale(0, 0) translate(-875px, -380px);}100%{-webkit-transform: translate(875px, 380px) scale(1, 1) translate(-875px, -380px);transform: translate(875px, 380px) scale(1, 1) translate(-875px, -380px);}}@keyframes kf_el_ns1INrq3g4H_an_uGTrU8NO4{36%{-webkit-transform: translate(875px, 380px) scale(0, 0) translate(-875px, -380px);transform: translate(875px, 380px) scale(0, 0) translate(-875px, -380px);}41.33%{-webkit-transform: translate(875px, 380px) scale(1.2, 1.2) translate(-875px, -380px);transform: translate(875px, 380px) scale(1.2, 1.2) translate(-875px, -380px);}45.33%{-webkit-transform: translate(875px, 380px) scale(1, 1) translate(-875px, -380px);transform: translate(875px, 380px) scale(1, 1) translate(-875px, -380px);}0%{-webkit-transform: translate(875px, 380px) scale(0, 0) translate(-875px, -380px);transform: translate(875px, 380px) scale(0, 0) translate(-875px, -380px);}100%{-webkit-transform: translate(875px, 380px) scale(1, 1) translate(-875px, -380px);transform: translate(875px, 380px) scale(1, 1) translate(-875px, -380px);}}@-webkit-keyframes kf_el_v5MlYjMAsc2_an_2hR6jd48Ny{29.33%{stroke-dasharray: 352.35;}0%{stroke-dasharray: 352.35;}100%{stroke-dasharray: 352.35;}}@keyframes kf_el_v5MlYjMAsc2_an_2hR6jd48Ny{29.33%{stroke-dasharray: 352.35;}0%{stroke-dasharray: 352.35;}100%{stroke-dasharray: 352.35;}}@-webkit-keyframes kf_el_v5MlYjMAsc2_an_A9RKT6EV8{29.33%{stroke-dashoffset: 352.35;}36%{stroke-dashoffset: 0;}0%{stroke-dashoffset: 352.35;}100%{stroke-dashoffset: 0;}}@keyframes kf_el_v5MlYjMAsc2_an_A9RKT6EV8{29.33%{stroke-dashoffset: 352.35;}36%{stroke-dashoffset: 0;}0%{stroke-dashoffset: 352.35;}100%{stroke-dashoffset: 0;}}@-webkit-keyframes kf_el_0-6IqflB8Ck_an_4_MVZCnzs{24%{-webkit-transform: translate(561.9680404663086px, 315.9680404663086px) scale(0, 0) translate(-561.9680404663086px, -315.9680404663086px);transform: translate(561.9680404663086px, 315.9680404663086px) scale(0, 0) translate(-561.9680404663086px, -315.9680404663086px);}29.33%{-webkit-transform: translate(561.9680404663086px, 315.9680404663086px) scale(1.2, 1.2) translate(-561.9680404663086px, -315.9680404663086px);transform: translate(561.9680404663086px, 315.9680404663086px) scale(1.2, 1.2) translate(-561.9680404663086px, -315.9680404663086px);}33.33%{-webkit-transform: translate(561.9680404663086px, 315.9680404663086px) scale(1, 1) translate(-561.9680404663086px, -315.9680404663086px);transform: translate(561.9680404663086px, 315.9680404663086px) scale(1, 1) translate(-561.9680404663086px, -315.9680404663086px);}0%{-webkit-transform: translate(561.9680404663086px, 315.9680404663086px) scale(0, 0) translate(-561.9680404663086px, -315.9680404663086px);transform: translate(561.9680404663086px, 315.9680404663086px) scale(0, 0) translate(-561.9680404663086px, -315.9680404663086px);}100%{-webkit-transform: translate(561.9680404663086px, 315.9680404663086px) scale(1, 1) translate(-561.9680404663086px, -315.9680404663086px);transform: translate(561.9680404663086px, 315.9680404663086px) scale(1, 1) translate(-561.9680404663086px, -315.9680404663086px);}}@keyframes kf_el_0-6IqflB8Ck_an_4_MVZCnzs{24%{-webkit-transform: translate(561.9680404663086px, 315.9680404663086px) scale(0, 0) translate(-561.9680404663086px, -315.9680404663086px);transform: translate(561.9680404663086px, 315.9680404663086px) scale(0, 0) translate(-561.9680404663086px, -315.9680404663086px);}29.33%{-webkit-transform: translate(561.9680404663086px, 315.9680404663086px) scale(1.2, 1.2) translate(-561.9680404663086px, -315.9680404663086px);transform: translate(561.9680404663086px, 315.9680404663086px) scale(1.2, 1.2) translate(-561.9680404663086px, -315.9680404663086px);}33.33%{-webkit-transform: translate(561.9680404663086px, 315.9680404663086px) scale(1, 1) translate(-561.9680404663086px, -315.9680404663086px);transform: translate(561.9680404663086px, 315.9680404663086px) scale(1, 1) translate(-561.9680404663086px, -315.9680404663086px);}0%{-webkit-transform: translate(561.9680404663086px, 315.9680404663086px) scale(0, 0) translate(-561.9680404663086px, -315.9680404663086px);transform: translate(561.9680404663086px, 315.9680404663086px) scale(0, 0) translate(-561.9680404663086px, -315.9680404663086px);}100%{-webkit-transform: translate(561.9680404663086px, 315.9680404663086px) scale(1, 1) translate(-561.9680404663086px, -315.9680404663086px);transform: translate(561.9680404663086px, 315.9680404663086px) scale(1, 1) translate(-561.9680404663086px, -315.9680404663086px);}}@-webkit-keyframes kf_el_4syHpIcFIr2_an_lhVVzA5HkK{17.33%{stroke-dasharray: 345.96;}0%{stroke-dasharray: 345.96;}100%{stroke-dasharray: 345.96;}}@keyframes kf_el_4syHpIcFIr2_an_lhVVzA5HkK{17.33%{stroke-dasharray: 345.96;}0%{stroke-dasharray: 345.96;}100%{stroke-dasharray: 345.96;}}@-webkit-keyframes kf_el_4syHpIcFIr2_an_1OKXInXpU{17.33%{stroke-dashoffset: 345.96;}24%{stroke-dashoffset: 0;}0%{stroke-dashoffset: 345.96;}100%{stroke-dashoffset: 0;}}@keyframes kf_el_4syHpIcFIr2_an_1OKXInXpU{17.33%{stroke-dashoffset: 345.96;}24%{stroke-dashoffset: 0;}0%{stroke-dashoffset: 345.96;}100%{stroke-dashoffset: 0;}}@-webkit-keyframes kf_el_YG_HOr9pYPa_an_XzIDPP_yE{12%{-webkit-transform: translate(325.9680404663086px, 555.9680404663086px) scale(0, 0) translate(-325.9680404663086px, -555.9680404663086px);transform: translate(325.9680404663086px, 555.9680404663086px) scale(0, 0) translate(-325.9680404663086px, -555.9680404663086px);}17.33%{-webkit-transform: translate(325.9680404663086px, 555.9680404663086px) scale(1.2, 1.2) translate(-325.9680404663086px, -555.9680404663086px);transform: translate(325.9680404663086px, 555.9680404663086px) scale(1.2, 1.2) translate(-325.9680404663086px, -555.9680404663086px);}21.33%{-webkit-transform: translate(325.9680404663086px, 555.9680404663086px) scale(1, 1) translate(-325.9680404663086px, -555.9680404663086px);transform: translate(325.9680404663086px, 555.9680404663086px) scale(1, 1) translate(-325.9680404663086px, -555.9680404663086px);}0%{-webkit-transform: translate(325.9680404663086px, 555.9680404663086px) scale(0, 0) translate(-325.9680404663086px, -555.9680404663086px);transform: translate(325.9680404663086px, 555.9680404663086px) scale(0, 0) translate(-325.9680404663086px, -555.9680404663086px);}100%{-webkit-transform: translate(325.9680404663086px, 555.9680404663086px) scale(1, 1) translate(-325.9680404663086px, -555.9680404663086px);transform: translate(325.9680404663086px, 555.9680404663086px) scale(1, 1) translate(-325.9680404663086px, -555.9680404663086px);}}@keyframes kf_el_YG_HOr9pYPa_an_XzIDPP_yE{12%{-webkit-transform: translate(325.9680404663086px, 555.9680404663086px) scale(0, 0) translate(-325.9680404663086px, -555.9680404663086px);transform: translate(325.9680404663086px, 555.9680404663086px) scale(0, 0) translate(-325.9680404663086px, -555.9680404663086px);}17.33%{-webkit-transform: translate(325.9680404663086px, 555.9680404663086px) scale(1.2, 1.2) translate(-325.9680404663086px, -555.9680404663086px);transform: translate(325.9680404663086px, 555.9680404663086px) scale(1.2, 1.2) translate(-325.9680404663086px, -555.9680404663086px);}21.33%{-webkit-transform: translate(325.9680404663086px, 555.9680404663086px) scale(1, 1) translate(-325.9680404663086px, -555.9680404663086px);transform: translate(325.9680404663086px, 555.9680404663086px) scale(1, 1) translate(-325.9680404663086px, -555.9680404663086px);}0%{-webkit-transform: translate(325.9680404663086px, 555.9680404663086px) scale(0, 0) translate(-325.9680404663086px, -555.9680404663086px);transform: translate(325.9680404663086px, 555.9680404663086px) scale(0, 0) translate(-325.9680404663086px, -555.9680404663086px);}100%{-webkit-transform: translate(325.9680404663086px, 555.9680404663086px) scale(1, 1) translate(-325.9680404663086px, -555.9680404663086px);transform: translate(325.9680404663086px, 555.9680404663086px) scale(1, 1) translate(-325.9680404663086px, -555.9680404663086px);}}@-webkit-keyframes kf_el_TcatsB4Z-KO_an_cGwAwK0-4Q{5.33%{stroke-dasharray: 295.54;}0%{stroke-dasharray: 295.54;}100%{stroke-dasharray: 295.54;}}@keyframes kf_el_TcatsB4Z-KO_an_cGwAwK0-4Q{5.33%{stroke-dasharray: 295.54;}0%{stroke-dasharray: 295.54;}100%{stroke-dasharray: 295.54;}}@-webkit-keyframes kf_el_TcatsB4Z-KO_an_qFnDXDiQ-{5.33%{stroke-dashoffset: 295.54;}12%{stroke-dashoffset: 0;}0%{stroke-dashoffset: 295.54;}100%{stroke-dashoffset: 0;}}@keyframes kf_el_TcatsB4Z-KO_an_qFnDXDiQ-{5.33%{stroke-dashoffset: 295.54;}12%{stroke-dashoffset: 0;}0%{stroke-dashoffset: 295.54;}100%{stroke-dashoffset: 0;}}@-webkit-keyframes kf_el_ZpZW1U1fSIP_an_ON0k6EzxC{0%{-webkit-transform: translate(214.07353973388672px, 310.6466598510742px) scale(0, 0) translate(-214.07353973388672px, -310.6466598510742px);transform: translate(214.07353973388672px, 310.6466598510742px) scale(0, 0) translate(-214.07353973388672px, -310.6466598510742px);}5.33%{-webkit-transform: translate(214.07353973388672px, 310.6466598510742px) scale(1.2, 1.2) translate(-214.07353973388672px, -310.6466598510742px);transform: translate(214.07353973388672px, 310.6466598510742px) scale(1.2, 1.2) translate(-214.07353973388672px, -310.6466598510742px);}9.33%{-webkit-transform: translate(214.07353973388672px, 310.6466598510742px) scale(1, 1) translate(-214.07353973388672px, -310.6466598510742px);transform: translate(214.07353973388672px, 310.6466598510742px) scale(1, 1) translate(-214.07353973388672px, -310.6466598510742px);}100%{-webkit-transform: translate(214.07353973388672px, 310.6466598510742px) scale(1, 1) translate(-214.07353973388672px, -310.6466598510742px);transform: translate(214.07353973388672px, 310.6466598510742px) scale(1, 1) translate(-214.07353973388672px, -310.6466598510742px);}}@keyframes kf_el_ZpZW1U1fSIP_an_ON0k6EzxC{0%{-webkit-transform: translate(214.07353973388672px, 310.6466598510742px) scale(0, 0) translate(-214.07353973388672px, -310.6466598510742px);transform: translate(214.07353973388672px, 310.6466598510742px) scale(0, 0) translate(-214.07353973388672px, -310.6466598510742px);}5.33%{-webkit-transform: translate(214.07353973388672px, 310.6466598510742px) scale(1.2, 1.2) translate(-214.07353973388672px, -310.6466598510742px);transform: translate(214.07353973388672px, 310.6466598510742px) scale(1.2, 1.2) translate(-214.07353973388672px, -310.6466598510742px);}9.33%{-webkit-transform: translate(214.07353973388672px, 310.6466598510742px) scale(1, 1) translate(-214.07353973388672px, -310.6466598510742px);transform: translate(214.07353973388672px, 310.6466598510742px) scale(1, 1) translate(-214.07353973388672px, -310.6466598510742px);}100%{-webkit-transform: translate(214.07353973388672px, 310.6466598510742px) scale(1, 1) translate(-214.07353973388672px, -310.6466598510742px);transform: translate(214.07353973388672px, 310.6466598510742px) scale(1, 1) translate(-214.07353973388672px, -310.6466598510742px);}}#el_o7Kf_eJ8W *{-webkit-animation-duration: 2.5s;animation-duration: 2.5s;-webkit-animation-iteration-count: 1;animation-iteration-count: 1;-webkit-animation-timing-function: cubic-bezier(0, 0, 1, 1);animation-timing-function: cubic-bezier(0, 0, 1, 1);}#el_D9Mb6xO_xI{stroke: none;stroke-width: 1;fill: none;}#el_3k-cdhtt8l{fill: #F2F2F2;}#el_6Qcd-HjgAU{fill: #3F3D56;}#el_Z8oQKzCPqd{fill: #3F3D56;}#el_2NSSuPJ40_{fill: #3F3D56;}#el_92XAJSQa-4{fill: #3F3D56;}#el_8LwswxSxEB{fill: #3F3D56;}#el_v1q1ubvzNR{fill: #3F3D56;}#el_ijd7IJFA24{fill: #3F3D56;}#el_af6MGY1vLy{fill: #3F3D56;}#el_BhKHARh69Z{fill: #3F3D56;}#el_PCRRsuVQ4B{fill: #3F3D56;}#el_y_7nchFqpJ{fill: #3F3D56;}#el_U0I628HKQh{fill: #3F3D56;}#el_nSVSaCiJcB8{fill: #3F3D56;}#el_mutWvg7nzXC{fill: #3F3D56;}#el_hrlUA_-Ejbs{fill: #3F3D56;}#el_QSFWfPt6huL{fill: #3F3D56;}#el_48q-LBE4CEz{fill: #3F3D56;}#el_jUK7SyWLY7J{fill: #3F3D56;}#el_M0c3mno1gJN{fill: #3F3D56;}#el_3JBWsxI4eaI{fill: #3F3D56;}#el_U5kZ1qBqyDB{fill: #3F3D56;}#el_tFekC3Bzbb0{fill: #3F3D56;}#el__ZuUhI4QqEw{fill: #3F3D56;}#el_0rJ-kBx2y1h{fill: #3F3D56;}#el_4syHpIcFIr2{stroke: #1B7FC4;stroke-width: 4;-webkit-animation-fill-mode: forwards, forwards;animation-fill-mode: forwards, forwards;stroke-dashoffset: 345.96;-webkit-animation-name: kf_el_4syHpIcFIr2_an_1OKXInXpU, kf_el_4syHpIcFIr2_an_lhVVzA5HkK;animation-name: kf_el_4syHpIcFIr2_an_1OKXInXpU, kf_el_4syHpIcFIr2_an_lhVVzA5HkK;-webkit-animation-timing-function: cubic-bezier(0, 0, 0.58, 1), cubic-bezier(0, 0, 0.58, 1);animation-timing-function: cubic-bezier(0, 0, 0.58, 1), cubic-bezier(0, 0, 0.58, 1);stroke-dasharray: 345.96;}#el_TcatsB4Z-KO{stroke: #1B7FC4;stroke-width: 4;-webkit-animation-fill-mode: forwards, forwards;animation-fill-mode: forwards, forwards;stroke-dashoffset: 295.54;-webkit-animation-name: kf_el_TcatsB4Z-KO_an_qFnDXDiQ-, kf_el_TcatsB4Z-KO_an_cGwAwK0-4Q;animation-name: kf_el_TcatsB4Z-KO_an_qFnDXDiQ-, kf_el_TcatsB4Z-KO_an_cGwAwK0-4Q;-webkit-animation-timing-function: cubic-bezier(0, 0, 0.58, 1), cubic-bezier(0, 0, 0.58, 1);animation-timing-function: cubic-bezier(0, 0, 0.58, 1), cubic-bezier(0, 0, 0.58, 1);stroke-dasharray: 295.54;}#el_v5MlYjMAsc2{stroke: #1B7FC4;stroke-width: 4;-webkit-animation-fill-mode: forwards, forwards;animation-fill-mode: forwards, forwards;stroke-dashoffset: 352.35;-webkit-animation-name: kf_el_v5MlYjMAsc2_an_A9RKT6EV8, kf_el_v5MlYjMAsc2_an_2hR6jd48Ny;animation-name: kf_el_v5MlYjMAsc2_an_A9RKT6EV8, kf_el_v5MlYjMAsc2_an_2hR6jd48Ny;-webkit-animation-timing-function: cubic-bezier(0, 0, 0.58, 1), cubic-bezier(0, 0, 0.58, 1);animation-timing-function: cubic-bezier(0, 0, 0.58, 1), cubic-bezier(0, 0, 0.58, 1);stroke-dasharray: 352.35;}#el_ISTiSkK_6Y_{stroke: #1B7FC4;stroke-width: 4;-webkit-animation-fill-mode: forwards, forwards;animation-fill-mode: forwards, forwards;stroke-dashoffset: 257.77;-webkit-animation-name: kf_el_ISTiSkK_6Y__an__0Y0DoCwk, kf_el_ISTiSkK_6Y__an__mFvo20ru3;animation-name: kf_el_ISTiSkK_6Y__an__0Y0DoCwk, kf_el_ISTiSkK_6Y__an__mFvo20ru3;-webkit-animation-timing-function: cubic-bezier(0, 0, 0.58, 1), cubic-bezier(0, 0, 0.58, 1);animation-timing-function: cubic-bezier(0, 0, 0.58, 1), cubic-bezier(0, 0, 0.58, 1);stroke-dasharray: 257.77;}#el_8IYLrV69pPb{stroke: #1B7FC4;stroke-width: 4;-webkit-animation-fill-mode: forwards, forwards;animation-fill-mode: forwards, forwards;stroke-dashoffset: 380.4;-webkit-animation-name: kf_el_8IYLrV69pPb_an_LOX4s_PwI, kf_el_8IYLrV69pPb_an_emsXv41AOH;animation-name: kf_el_8IYLrV69pPb_an_LOX4s_PwI, kf_el_8IYLrV69pPb_an_emsXv41AOH;-webkit-animation-timing-function: cubic-bezier(0, 0, 0.58, 1), cubic-bezier(0, 0, 0.58, 1);animation-timing-function: cubic-bezier(0, 0, 0.58, 1), cubic-bezier(0, 0, 0.58, 1);stroke-dasharray: 380.4;}#el_p4lTeQTI65x{stroke: #1B7FC4;stroke-width: 4;-webkit-animation-fill-mode: forwards, forwards;animation-fill-mode: forwards, forwards;stroke-dashoffset: 511.87;-webkit-animation-name: kf_el_p4lTeQTI65x_an_klZW-Lirs, kf_el_p4lTeQTI65x_an_21sbEX6h3Y;animation-name: kf_el_p4lTeQTI65x_an_klZW-Lirs, kf_el_p4lTeQTI65x_an_21sbEX6h3Y;-webkit-animation-timing-function: cubic-bezier(0, 0, 0.58, 1), cubic-bezier(0, 0, 0.58, 1);animation-timing-function: cubic-bezier(0, 0, 0.58, 1), cubic-bezier(0, 0, 0.58, 1);stroke-dasharray: 511.87;}#el_ZpZW1U1fSIP{fill: #1B7FC4;}#el_YG_HOr9pYPa{fill: #1B7FC4;}#el_ns1INrq3g4H{fill: #1B7FC4;}#el_C-UukeibMJk{fill: #1B7FC4;}#el_0-6IqflB8Ck{fill: #1B7FC4;}#el_0Gb0y0vYB8-{fill: #1B7FC4;}#el_ZpZW1U1fSIP_an_ON0k6EzxC{-webkit-animation-fill-mode: forwards;animation-fill-mode: forwards;-webkit-transform: translate(214.07353973388672px, 310.6466598510742px) scale(0, 0) translate(-214.07353973388672px, -310.6466598510742px);transform: translate(214.07353973388672px, 310.6466598510742px) scale(0, 0) translate(-214.07353973388672px, -310.6466598510742px);-webkit-animation-name: kf_el_ZpZW1U1fSIP_an_ON0k6EzxC;animation-name: kf_el_ZpZW1U1fSIP_an_ON0k6EzxC;-webkit-animation-timing-function: cubic-bezier(0, 0, 0.58, 1);animation-timing-function: cubic-bezier(0, 0, 0.58, 1);}#el_YG_HOr9pYPa_an_XzIDPP_yE{-webkit-animation-fill-mode: forwards;animation-fill-mode: forwards;-webkit-transform: translate(325.9680404663086px, 555.9680404663086px) scale(0, 0) translate(-325.9680404663086px, -555.9680404663086px);transform: translate(325.9680404663086px, 555.9680404663086px) scale(0, 0) translate(-325.9680404663086px, -555.9680404663086px);-webkit-animation-name: kf_el_YG_HOr9pYPa_an_XzIDPP_yE;animation-name: kf_el_YG_HOr9pYPa_an_XzIDPP_yE;-webkit-animation-timing-function: cubic-bezier(0, 0, 0.58, 1);animation-timing-function: cubic-bezier(0, 0, 0.58, 1);}#el_0-6IqflB8Ck_an_4_MVZCnzs{-webkit-animation-fill-mode: forwards;animation-fill-mode: forwards;-webkit-transform: translate(561.9680404663086px, 315.9680404663086px) scale(0, 0) translate(-561.9680404663086px, -315.9680404663086px);transform: translate(561.9680404663086px, 315.9680404663086px) scale(0, 0) translate(-561.9680404663086px, -315.9680404663086px);-webkit-animation-name: kf_el_0-6IqflB8Ck_an_4_MVZCnzs;animation-name: kf_el_0-6IqflB8Ck_an_4_MVZCnzs;-webkit-animation-timing-function: cubic-bezier(0, 0, 0.58, 1);animation-timing-function: cubic-bezier(0, 0, 0.58, 1);}#el_ns1INrq3g4H_an_uGTrU8NO4{-webkit-animation-fill-mode: forwards;animation-fill-mode: forwards;-webkit-transform: translate(875px, 380px) scale(0, 0) translate(-875px, -380px);transform: translate(875px, 380px) scale(0, 0) translate(-875px, -380px);-webkit-animation-name: kf_el_ns1INrq3g4H_an_uGTrU8NO4;animation-name: kf_el_ns1INrq3g4H_an_uGTrU8NO4;-webkit-animation-timing-function: cubic-bezier(0, 0, 0.58, 1);animation-timing-function: cubic-bezier(0, 0, 0.58, 1);}#el_C-UukeibMJk_an_CvrmEBVjS{-webkit-animation-fill-mode: forwards;animation-fill-mode: forwards;-webkit-transform: translate(979.2025146484375px, 595.8161010742188px) scale(0, 0) translate(-979.2025146484375px, -595.8161010742188px);transform: translate(979.2025146484375px, 595.8161010742188px) scale(0, 0) translate(-979.2025146484375px, -595.8161010742188px);-webkit-animation-name: kf_el_C-UukeibMJk_an_CvrmEBVjS;animation-name: kf_el_C-UukeibMJk_an_CvrmEBVjS;-webkit-animation-timing-function: cubic-bezier(0, 0, 0.58, 1);animation-timing-function: cubic-bezier(0, 0, 0.58, 1);}#el_0Gb0y0vYB8-_an__oEh-waDo{-webkit-animation-fill-mode: forwards;animation-fill-mode: forwards;-webkit-transform: translate(610px, 554px) scale(0, 0) translate(-610px, -554px);transform: translate(610px, 554px) scale(0, 0) translate(-610px, -554px);-webkit-animation-name: kf_el_0Gb0y0vYB8-_an__oEh-waDo;animation-name: kf_el_0Gb0y0vYB8-_an__oEh-waDo;-webkit-animation-timing-function: cubic-bezier(0, 0, 0.58, 1);animation-timing-function: cubic-bezier(0, 0, 0.58, 1);}</style>
    <!-- Generator: Sketch 57.1 (83088) - https://sketch.com -->
    <title>undraw_connected_world_wuay (2)</title>
    <desc>Created with Sketch.</desc>
    <g id="el_D9Mb6xO_xI" fill-rule="evenodd">
        <g id="el_d4Z2nb7eYM">
            <path d="M1083.96658,212.4518 C950.42408,26.62166 668.32189,-48.7591 390.88345,32.42777 C244.21008,75.34884 102.7899,161.34757 32.70549,327.86884 C-92.57792,625.54361 170.47042,720.61368 342.47542,750.91366 C425.64773,765.56509 503.98193,790.17627 575.56442,823.68443 C704.3478,883.96862 932.30321,937.3868 1104.19668,686.27516 C1228.78528,504.26912 1172.91908,336.23303 1083.96658,212.4518 Z" id="el_3k-cdhtt8l" fill-rule="nonzero"/>
            <path d="M309.73197,249.21746 C309.358401,246.264077 308.602887,243.371708 307.48438,240.61291 C307.195984,239.558056 306.477414,238.673037 305.50428,238.17414 C304.860937,238.006868 304.186467,237.999316 303.53954,238.15214 L293.45226,239.69564 C292.607969,239.7342 291.799562,240.04831 291.15073,240.58991 C289.83691,241.9716 291.13063,244.19647 291.09041,246.10266 C291.04518,248.24615 289.14067,249.98603 287.07541,250.56166 C284.967266,250.987617 282.792665,250.960655 280.69573,250.48256 L266.59073,248.29062 C270.744833,246.964392 274.442376,244.496939 277.2613,241.16991 C279.11748,238.97101 280.10499,234.86572 277.4224,233.82442 C276.625347,233.60569 275.794242,233.538958 274.9725,233.62771 C268.58195,233.6774 263.55312,228.34171 257.5705,226.09449 C249.715859,223.334803 240.977323,225.939814 235.91586,232.54987 L243.42976,232.91214 C244.136662,232.873127 244.837639,233.060077 245.43123,233.44593 C247.07793,234.79888 245.03066,237.3976 245.26264,239.51617 C245.56404,242.26865 249.2187,242.85634 251.97364,243.13467 C254.72858,243.413 258.22354,245.65134 256.89836,248.08258 C243.05172,252.85198 228.96126,238.75944 214.41936,240.49419 C210.73889,240.93325 207.26352,242.37912 203.67018,243.28828 C181.71944,248.8421 159.02627,234.02387 136.60237,237.16211 C131.617272,238.011952 126.717777,239.304131 121.96196,241.02333 C118.91003,242.02541 115.72667,243.10833 113.50916,245.43233 C111.29165,247.75633 110.44768,251.7308 112.54843,254.16087 C106.75822,254.63768 100.929335,254.08361 95.33266,252.52441 C98.4154431,254.238043 100.317002,257.497742 100.29134,261.0247 C91.2506203,262.498946 82.449286,265.182591 74.12408,269.00345 C75.6778792,271.587303 77.4927174,274.004895 79.54008,276.21824 L68.09474,283.57124 C71.96152,284.54549 73.96074,289.81817 71.71207,293.11124 C75.72148,291.32757 78.20632,286.71335 82.49372,285.77785 C85.30254,285.16497 88.16058,286.31401 90.82517,287.39341 C93.48976,288.47281 96.41841,289.51947 99.17683,288.70936 C101.93525,287.89925 103.96983,284.32253 102.21705,282.04372 C114.007242,278.603736 126.192156,276.700034 138.46976,276.3798 C139.416966,276.26093 140.377558,276.443228 141.21536,276.90085 C142.81361,278.00968 142.3931,280.40466 142.30701,282.34797 C142.22092,284.29128 143.73552,286.84529 145.47236,285.96936 C143.42896,287.74127 145.1758,291.07701 147.13623,292.9403 C149.09666,294.80359 151.45954,297.37464 150.25932,299.79841 C149.94607,300.431 149.41477,300.93714 149.11337,301.57546 C148.22372,303.45962 149.63626,305.65622 151.30237,306.90746 C152.96848,308.1587 155.00929,309.03318 156.16665,310.76583 C157.32401,312.49848 156.79843,315.53131 154.72888,315.77326 L148.84652,308.30457 C146.836773,310.388549 145.458965,312.999556 144.87288,315.83479 C151.11063,320.93402 152.04888,331.31302 146.82668,337.4482 C144.158,340.58343 140.36294,342.48853 137.05068,344.93401 C133.73842,347.37949 130.67352,350.86184 130.68185,354.97901 C130.69624,362.09211 130.11504,368.70047 132.78049,375.2953 C137.695604,387.455456 143.370278,399.294609 149.77094,410.74272 C151.45178,413.74888 153.6241,417.04378 157.02914,417.56139 C152.72584,407.08525 148.852017,396.446123 145.40767,385.64401 C147.65106,385.65279 150.24355,385.83091 151.55867,387.64841 C152.64767,389.15341 152.41374,391.19962 152.75212,393.02626 C153.182505,394.795968 153.900181,396.483123 154.87658,398.02057 L175.42608,434.62539 C177.1296,437.65987 179.08364,440.91708 182.3394,442.14596 C184.42098,442.93164 186.82927,442.78363 188.7452,443.91478 C190.24696,444.80141 191.25843,446.37526 192.78939,447.21044 C197.11824,449.57192 203.13795,445.04296 207.18339,447.86244 C208.3401,448.66862 209.07597,449.94935 210.14179,450.87235 C213.87809,454.10797 220.00719,451.94342 224.32035,454.35711 C227.10011,455.9127 228.54074,459.02378 230.02341,461.84311 C233.73734,468.90521 239.74668,475.82394 247.70598,476.38628 C250.20615,476.56292 252.75998,476.08888 255.20388,476.64497 C257.64778,477.20106 260.05354,479.33391 259.66124,481.80943 C258.98869,486.05343 261.08555,490.70055 260.5224,494.96043 C259.49661,502.71993 248.49029,506.12982 247.54489,513.89952 C247.33789,515.6007 247.66189,517.35664 247.25683,519.02181 C246.76037,521.06266 245.22767,522.72429 244.68304,524.75281 C243.65093,528.59702 246.40511,532.42281 249.43073,535.00907 C252.45635,537.59533 256.06537,539.82547 257.71951,543.44583 C259.4679,547.27248 258.6091,551.73433 259.17771,555.90283 C260.41905,565.00322 268.27928,571.7496 276.36853,576.09956 C278.83316,577.4249 281.47947,578.708 283.07468,581.00718 C285.15677,584.00809 284.94935,587.96418 285.6446,591.5499 C287.34731,600.33145 294.73987,607.56708 294.94977,616.50972 C295.09896,622.86585 291.56577,628.6321 289.45519,634.62944 C285.451136,646.256892 286.710944,659.051794 292.90584,669.67504 C294.4847,672.34104 296.37306,674.8546 297.48995,677.74479 C299.48305,682.90233 298.83634,688.76525 300.67403,693.98019 C303.10362,700.87479 309.77965,706.56953 309.14069,713.85171 C312.17159,720.14577 318.86438,723.23836 325.59432,725.11171 L337.6559,728.46921 C339.96539,729.11209 342.37871,729.76007 344.73038,729.29458 C347.08205,728.82909 349.32638,726.87635 349.26567,724.47982 C343.35084,723.14589 337.24631,721.7274 332.37051,718.12309 C327.49471,714.51878 324.1547,708.10038 326.00466,702.32609 C326.86247,699.64858 328.68744,696.55667 326.9524,694.3443 C325.95897,693.07758 324.1424,692.74663 323.02189,691.59086 C321.27414,689.78821 321.8746,686.75986 323.13107,684.58606 C324.38754,682.41226 326.20364,680.46965 326.71044,678.01052 C327.23441,675.193098 325.952069,672.346797 323.4946,670.8726 C325.731078,670.028264 327.765066,668.723176 329.4646,667.04201 C331.0346,665.2491 331.75981,662.48501 330.52479,660.44686 C334.19232,660.91199 338.52221,661.13979 340.92974,658.33426 C342.85225,656.09393 342.7202,652.74456 341.96056,649.89182 C341.20092,647.03908 339.91695,644.26825 339.87695,641.31638 C348.337283,641.717375 356.816213,641.429867 365.22995,640.4567 C364.01329,636.359123 361.248493,632.896539 357.52181,630.80316 C361.3324,630.15841 364.80392,625.59639 366.00781,621.92394 C367.2117,618.25149 366.90467,614.25126 366.16056,610.45881 C365.874777,609.482406 365.835608,608.450367 366.04656,607.45511 C366.47567,606.0876 367.81904,605.25311 369.0619,604.53937 L387.97629,593.67666 C389.104976,593.111145 390.128071,592.355851 391.0009,591.44376 C392.98257,589.11606 392.68902,585.60227 391.67434,582.71859 C390.65966,579.83491 389.03434,577.12326 388.6435,574.09136 C387.4745,565.02379 397.18112,558.51785 400.45694,549.98225 C401.7425,546.63257 402.0045,542.99153 402.25328,539.41225 C402.52048,535.56797 402.54034,531.10267 399.58862,528.62533 C396.75914,526.25061 392.33811,526.78033 389.37737,524.57145 C386.66289,522.54628 385.72637,518.61312 382.76095,516.97736 C380.0679,515.49186 376.69134,516.43663 373.69616,515.73797 C368.42252,514.50784 365.1038,508.42982 359.71792,507.86704 C356.67911,507.54951 353.23985,509.03511 350.74923,507.26535 C348.55462,505.70593 348.46667,502.57158 348.04892,499.91196 C346.549495,491.44616 339.935165,484.810533 331.47423,483.2839 C328.34104,482.78144 324.9306,482.97226 322.26514,481.25043 C319.56614,479.50691 318.32862,476.24267 316.20854,473.82816 C312.79163,469.93673 307.41012,468.55416 302.3689,467.36903 L281.86339,462.54847 C278.22327,461.69272 273.53118,461.23896 271.57779,464.42755 C270.999545,465.641622 270.59018,466.929122 270.36109,468.25421 C268.859495,473.171919 264.357925,476.560191 259.21673,476.64242 C257.498269,473.711093 254.714028,471.556772 251.44519,470.62915 C249.3659,470.04968 247.14027,469.98523 245.15719,469.1327 C242.974439,468.067298 241.326741,466.150062 240.601641,463.831936 C239.876541,461.513809 240.138035,458.999386 241.32462,456.88007 C243.755011,452.552928 242.985191,447.134044 239.44583,443.65498 C235.95864,440.5243 230.91432,439.76787 226.23847,440.08112 C225.01383,437.40898 227.06147,434.39412 229.26803,432.45224 C231.47459,430.51036 234.15403,428.60124 234.63452,425.7014 C235.3904,421.13994 229.57023,417.6754 225.15114,419.03549 C220.73205,420.39558 217.91153,424.6879 216.04707,428.91898 C214.97731,431.34661 214.06785,433.90298 212.38043,435.94998 C210.69301,437.99698 207.97562,439.46264 205.40536,438.80571 C201.7666,437.87571 200.36126,433.55258 199.55593,429.88421 C198.47543,424.96244 197.38864,419.97239 197.61504,414.9385 C197.84144,409.90461 199.53845,404.73596 203.25039,401.3282 C209.29917,395.77509 218.57839,396.31946 226.74171,397.20528 C224.81306,395.03228 225.28971,391.3701 227.35327,389.32477 C229.564842,387.359838 232.603797,386.613253 235.47411,387.32971 C237.933982,387.841754 240.149975,389.166699 241.76532,391.09123 C244.08511,393.91951 244.74478,397.73823 246.49821,400.94855 C248.25164,404.15887 252.19437,406.89704 255.42149,405.17472 C258.20887,403.68709 258.65128,399.82197 257.95755,396.73955 C257.26382,393.65713 255.79041,390.6598 256.0417,387.51029 C256.5212,381.50066 262.75082,377.88329 268.24809,375.40829 C273.74536,372.93329 280.04008,369.60474 280.911,363.63926 C280.940777,362.471251 281.161125,361.315946 281.56334,360.21897 C282.172904,359.25008 283.020225,358.45326 284.0247,357.90431 C300.06864,347.30144 316.37941,336.56914 334.71688,330.77553 C335.67088,330.4741 335.78288,330.8091 336.75515,330.57295 C338.11589,329.7865 337.21426,327.6109 335.90963,326.73448 C334.605,325.85806 332.8612,325.18595 332.53021,323.64953 C332.2869,322.52012 332.95234,321.41114 333.12521,320.26882 C333.54997,317.46182 330.19198,314.87016 327.58421,315.99237 C326.11121,314.0416 329.02585,311.7749 331.3826,311.12604 C338.459534,309.178381 345.724143,307.991659 353.05298,307.58604 C353.898695,307.451571 354.765163,307.598952 355.51886,308.00547 C356.74979,308.85813 356.59252,310.81382 355.72015,312.03087 C354.84778,313.24792 353.4908,314.01206 352.40369,315.04187 C349.982534,317.400486 349.077066,320.911503 350.05557,324.14687 C353.88157,326.09304 358.04109,328.09649 362.27857,327.41087 C366.51605,326.72525 370.27714,321.96412 368.28536,318.16163 C366.43056,314.62063 360.8591,313.82197 359.901,309.94111 C358.77923,305.39731 365.21141,301.35611 363.76251,296.90583 C363.12785,294.95646 361.18512,293.80921 359.6944,292.40183 C356.090862,288.869874 355.028418,283.486412 357.01995,278.85025 C352.092814,279.717042 347.051399,278.13941 343.49731,274.61855 C340.26283,271.3543 337.68241,266.20502 333.08939,266.35108 C328.87454,266.48508 325.24416,271.40238 321.30305,269.90219 C320.33347,269.53312 319.31119,268.78194 318.37174,269.22207 C317.747944,269.627115 317.344812,270.296286 317.27832,271.03707 C316.27678,275.82546 317.9997,281.28124 315.38993,285.41898 C312.55,289.92165 305.98113,290.5459 302.53826,294.60619 C300.66935,296.81026 299.94526,299.78024 298.22741,302.10395 C296.50956,304.42766 292.86348,305.90506 290.80192,303.88004 C292.888436,299.590615 291.735155,294.428545 288.02151,291.43496 C286.107497,290.186216 284.044306,289.182665 281.88032,288.44784 C279.462253,287.424305 277.161961,286.142282 275.01956,284.62413 C273.946347,283.976759 273.074312,283.043683 272.50092,281.92919 C272.047361,280.533671 272.108462,279.021875 272.67316,277.66751 C274.803698,271.559244 280.142784,267.133981 286.5403,266.17383 C289.28518,265.8004 292.47985,265.93198 294.29637,263.84056 C295.25753,262.73395 295.76185,261.06087 297.15699,260.61143 C298.049383,260.432136 298.975829,260.546226 299.79806,260.93667 L310.04339,264.54285 C311.186511,265.058915 312.444732,265.267015 313.69314,265.14649 C314.977166,264.973498 315.910353,263.839333 315.83279,262.54603 C315.50544,260.84462 312.88744,260.02816 313.12566,258.31203 C313.259089,257.755898 313.558076,257.253322 313.98313,256.87068 C321.469429,248.902525 332.123814,244.695152 343.03443,245.39844 C344.32756,247.52224 342.28243,250.03719 340.58074,251.85022 C338.87905,253.66325 337.51156,256.90269 339.56949,258.29827 C340.412846,258.728687 341.350954,258.939957 342.2974,258.91262 C344.819795,259.254041 347.271157,259.997576 349.5582,261.11493 C353.09854,262.655637 356.570937,264.341387 359.97539,266.17218 C359.67467,263.92747 359.38766,261.56269 360.23848,259.46382 C361.0893,257.36495 363.50741,255.71867 365.61953,256.53606 C367.65505,257.32381 368.69898,260.01906 370.8676,260.26599 C373.76041,260.59538 374.90169,256.32175 373.69334,253.67284 C372.48499,251.02393 370.0929,248.80591 369.89323,245.90127 C369.75852,243.94169 370.50423,241.51138 368.93894,240.32479 C368.381923,239.968549 367.749636,239.74684 367.09212,239.67721 L328.00825,232.48506 C325.68737,232.05797 322.3341,232.38531 322.23118,234.74292 C322.17372,236.05892 323.34925,237.36084 322.8286,238.5708 C322.27291,239.8622 320.4474,239.74413 319.11778,240.20089 C317.05472,240.9096 316.01948,243.35933 316.21762,245.53171 C316.580398,247.690298 317.416386,249.741853 318.66562,251.53922 C316.12344,250.47605 312.27415,250.28062 309.73197,249.21746 Z" id="el_6Qcd-HjgAU" fill-rule="nonzero"/>
            <path d="M278.5469,216.04006 C273.498245,214.369284 267.943637,216.03278 264.64442,220.20358 C264.00088,221.05091 263.46042,222.21898 263.99916,223.13649 C264.77158,224.45187 266.7397,223.93232 268.19072,223.46179 C270.323455,222.699824 272.644788,222.644448 274.81143,223.30385 C276.17394,223.77165 277.3929,224.59842 278.76136,225.04854 C280.118823,225.616314 281.678833,225.388346 282.81706,224.45587 C283.75624,223.49801 283.81517,222.00887 283.81683,220.66737 C283.948758,219.75829 283.663493,218.83821 283.04043,218.16321 C282.492658,217.845942 281.877122,217.663879 281.2449,217.63213 C279.828991,217.370044 278.548913,216.622101 277.62541,215.51728" id="el_Z8oQKzCPqd" fill-rule="nonzero"/>
            <path d="M292.63972,212.11626 C291.518069,212.055178 290.445678,212.583121 289.810066,213.509312 C289.174455,214.435504 289.067534,215.626014 289.52794,216.65064 C291.221793,217.11258 292.991444,217.227966 294.73094,216.98989 C296.505068,216.714455 297.939559,215.39925 298.3676,213.65564 C296.319603,214.028332 294.206214,213.624706 292.43971,212.5235" id="el_2NSSuPJ40_" fill-rule="nonzero"/>
            <path d="M339.92285,205.56316 C335.312575,206.54333 330.834216,208.064636 326.58085,210.09546 C330.697461,211.677814 333.296332,215.76477 332.98331,220.1639 C332.803361,220.986525 332.824199,221.840392 333.04406,222.65326 C333.53406,223.84119 334.95398,224.28693 336.20229,224.59184 C338.445055,225.274397 340.786982,225.573316 343.12929,225.47599 C345.509659,225.351437 347.66626,224.033568 348.86305,221.97217 C349.202507,221.009139 349.600711,220.067835 350.05542,219.15356 C353.04761,214.59651 361.93662,220.10666 365.14921,215.70222 C366.28089,214.15069 366.17738,211.81522 367.65265,210.58578 C368.41582,210.050139 369.300188,209.71264 370.22618,209.60365 C376.686714,208.320082 383.212588,207.390659 389.77459,206.81954 C392.88382,206.54897 396.93647,205.43254 396.96234,202.3117 C385.251137,200.011672 373.108135,201.645238 362.42112,206.95844 C358.5707,208.88699 353.47812,212.94375 349.7692,210.38696 C348.3805,209.42965 348.44926,206.85186 346.53794,205.77539 C344.58384,204.67483 341.99717,205.12245 339.92285,205.56316 Z" id="el_92XAJSQa-4" fill-rule="nonzero"/>
            <path d="M378.22194,212.7252 L383.71936,213.78152 C381.672217,213.690858 379.685173,214.486129 378.265866,215.964162 C376.84656,217.442195 376.132459,219.459832 376.306,221.50162 C381.45411,223.22142 387.06672,221.54786 392.48968,221.77647 C397.91264,222.00508 404.22229,225.87879 403.29656,231.22704 C403.01665,232.84417 402.08246,234.46022 402.56825,236.02784 C402.90874,237.12659 403.87775,237.90622 404.4247,238.91816 C405.56445,241.02685 404.65352,243.69403 403.21436,245.6109 C401.7752,247.52777 399.84078,249.05722 398.57753,251.09432 C395.43566,256.16089 397.22072,262.710952 399.09232,268.37123 C399.633484,270.509935 400.632781,272.505558 402.02109,274.22006 C404.79394,277.16828 409.31267,277.42469 413.35955,277.48375 C416.30501,277.52675 419.67916,277.38122 421.54183,275.09911 C423.97363,272.1197 422.27318,267.47119 423.87423,263.97445 C425.3283,260.7987 429.03296,259.43627 432.38944,258.46999 C438.53855,256.69975 444.8051,255.19476 450.61844,252.52084 C457.83714,249.20052 464.5835,244.02616 472.51769,243.59876 C474.74361,243.47886 477.02469,243.74156 479.16881,243.13169 C481.31293,242.52182 483.34969,240.66807 483.18737,238.44484 C483.04867,236.54525 481.44152,235.15035 480.18572,233.71835 C478.92992,232.28635 477.94372,230.08435 479.09788,228.56927 L499.89443,224.68485 C498.42028,220.6674 497.27188,215.37634 500.65932,212.76133 C501.88153,211.81782 503.51797,211.44071 504.5586,210.30006 C506.33223,208.35596 505.44035,205.00706 503.39297,203.35371 C501.34559,201.70036 498.57729,201.31655 495.95472,201.09871 C486.8359,200.34139 477.66472,200.84182 468.52825,201.34263 C450.66839,202.321603 432.808527,203.300573 414.94866,204.27954 C411.35332,204.47661 407.20227,204.17554 403.90477,205.40213 C401.1132,206.44056 399.12835,208.34671 395.9356,209.01642 C390.04164,210.25278 383.55542,209.41615 378.22194,212.7252 Z" id="el_8LwswxSxEB" fill-rule="nonzero"/>
            <path d="M476.70648,256.17846 C476.146289,256.089819 475.573452,256.219736 475.10631,256.54137 C474.797425,256.881471 474.613689,257.316698 474.58541,257.77526 C474.230504,259.799068 474.653258,261.882244 475.76901,263.6076 C476.926505,265.331297 478.928285,266.291022 480.99701,266.11409 C483.47237,265.79844 485.2966,263.68663 487.57231,262.65614 C491.07974,261.06933 505.97517,258.59562 495.67131,253.02887 C492.12038,251.11044 489.82587,252.80396 487.02716,254.06738 C483.842876,255.69639 480.274663,256.426262 476.70648,256.17846 Z" id="el_v1q1ubvzNR" fill-rule="nonzero"/>
            <path d="M566.9563,209.5826 C565.75312,210.074149 564.746584,210.950292 564.09386,212.07422 C563.46926,213.259522 563.883959,214.726392 565.0367,215.40922 C565.486096,215.572162 565.962489,215.64773 566.44025,215.63186 L571.3324,215.77801 C573.41069,215.8401 576.00671,216.28272 576.56518,218.28552 C576.97987,219.77266 576.05172,221.68365 577.1716,222.74639 C577.652215,223.118571 578.230123,223.343972 578.83581,223.39548 C580.447341,223.809451 582.13022,223.863762 583.76509,223.55456 C587.32462,222.5998 585.45427,220.4273 586.57536,218.49285 C588.29069,215.53301 587.99374,217.32474 591.01621,215.62839 C593.24832,214.37562 596.13268,212.10307 594.26963,208.9101 C591.02982,203.3576 571.73708,207.19726 566.9563,209.5826 Z" id="el_ijd7IJFA24" fill-rule="nonzero"/>
            <path d="M663.51518,206.79107 L660.67445,207.17015 C654.26853,208.02499 647.82631,208.8877 641.65654,210.81138 C644.327245,211.867314 647.129234,212.554866 649.98537,212.85511 C651.55761,212.932178 653.119383,213.154183 654.65082,213.5183 C657.37592,214.32954 660.12182,216.42442 662.75459,215.3513 C664.38698,214.68592 664.91967,212.98624 666.27189,212.08545 C667.20561,211.46345 670.74705,210.45671 671.14295,209.82891 C674.34354,204.75355 665.9754,206.46277 663.51518,206.79107 Z" id="el_af6MGY1vLy" fill-rule="nonzero"/>
            <path d="M675.98915,219.70207 C672.194607,221.823826 668.674033,224.40206 665.50596,227.37926 C664.17125,228.63394 662.80796,230.19442 662.92902,232.02226 C663.08988,234.45164 665.67773,235.8608 667.91976,236.81004 L677.00099,240.65489 C678.10266,239.10213 677.09435,236.9587 675.95577,235.43279 C674.81719,233.90688 673.46417,232.14144 673.96721,230.30522 C674.54127,228.20977 677.09621,227.49571 679.23867,227.13472 C682.72944,226.54655 692.14605,226.59372 691.01459,220.96803 C689.6814,214.33926 679.49325,217.74344 675.98915,219.70207 Z" id="el_BhKHARh69Z" fill-rule="nonzero"/>
            <path d="M674.163,594.82926 C673.29847,597.33213 673.21645,600.28054 674.71191,602.46578 C676.38998,604.91786 679.74831,605.8319 682.65381,605.21007 C685.547179,604.44026 688.126133,602.782129 690.02739,600.46925 C691.766179,598.53152 693.196619,596.337903 694.26855,593.96532 C695.764611,590.268013 696.819747,586.407282 697.41213,582.463 L700.23173,567.659 C700.8618,564.3504 700.83741,554.20679 694.75632,557.51169 C693.09506,558.41453 689.24868,565.54292 687.50772,567.56433 C684.36994,571.20756 683.95479,574.74257 682.30295,579.15622 C680.23393,584.68459 676.07564,589.29206 674.163,594.82926 Z" id="el_PCRRsuVQ4B" fill-rule="nonzero"/>
            <path d="M995.34508,670.58658 C993.35517,669.810042 991.423986,668.890701 989.56662,667.83574 C987.704119,672.956072 986.71394,678.352617 986.63732,683.80063 L1000.2532,676.09585 C1002.30146,674.93685 1004.62297,673.32637 1004.57893,670.97333 C1004.61656,670.381408 1004.32783,669.816214 1003.82616,669.4998 C1003.52358,669.37836 1003.19412,669.339702 1002.87165,669.3878 C1000.85265,669.55606 999.01177,670.54952 997.10716,671.24036 C995.20255,671.9312 992.97547,672.29636 991.22797,671.27113" id="el_y_7nchFqpJ" fill-rule="nonzero"/>
            <path d="M1067.17167,675.16081 C1065.67727,675.567602 1064.21727,676.091558 1062.80522,676.72781 C1059.68061,678.31762 1057.55501,681.33728 1054.74322,683.43123 C1052.05251,685.43501 1048.81347,686.53517 1045.63372,687.60485 C1044.69835,688.43166 1045.12816,690.09685 1046.1435,690.82318 C1047.23517,691.444208 1048.48721,691.725633 1049.73963,691.63149 C1053.04306,691.70441 1056.52334,691.73622 1059.41683,690.14068 C1061.0472,689.08311 1062.57282,687.872231 1063.97292,686.52454 C1067.35599,683.7018 1071.41871,681.83937 1075.44035,680.03954 C1076.9041,679.486863 1078.25759,678.677626 1079.43727,677.64982 C1081.9644,675.16009 1082.1421,671.31913 1078.49815,670.47175 C1075.55387,669.787 1069.97515,674.25386 1067.17167,675.16081 Z" id="el_U0I628HKQh" fill-rule="nonzero"/>
            <path d="M1098.90784,654.43039 C1099.23937,650.959194 1097.95813,647.528067 1095.43259,645.12375 C1095.39535,648.5514 1095.29126,652.20298 1093.36346,655.03737 C1091.98988,657.05689 1089.83624,658.42113 1088.33136,660.34481 C1086.82648,662.26849 1086.15848,665.3177 1087.92367,667.00569 C1089.05195,667.864256 1090.42624,668.33759 1091.84392,668.35591 C1095.35769,668.76953 1099.42478,669.00006 1101.88923,666.46152 C1103.23436,665.07595 1103.88866,663.0238 1105.52923,662.00512 C1106.14038,661.748494 1106.68613,661.35795 1107.12623,660.86229 C1107.80363,659.78545 1106.7273,658.36629 1105.51573,657.97829 C1104.30416,657.59029 1102.96903,657.77269 1101.75139,657.40419 C1100.53375,657.03569 1099.41664,655.6665 1100.04139,654.5583" id="el_nSVSaCiJcB8" fill-rule="nonzero"/>
            <path d="M1042.50292,528.75926 C1040.65948,529.207608 1038.75034,529.320173 1036.86699,529.09156 C1033.73885,528.51646 1031.30419,526.15894 1028.77871,524.22556 C1022.77521,519.654463 1015.47699,517.104523 1007.93308,516.94226 C1001.07056,516.81267 994.14393,518.67226 987.40394,517.37483 C987.84429,519.8241 989.94015,521.66111 992.17636,522.75299 C994.41257,523.84487 996.8806,524.39434 999.12754,525.46399 C1002.72607,527.194033 1005.58029,530.163385 1007.16675,533.82748 C1007.89044,535.51671 1008.34575,537.355 1009.44199,538.82998 C1011.68259,541.8448 1015.92958,542.50681 1019.67772,542.26026 C1024.56444,541.93881 1029.66832,540.53336 1034.21459,542.354 C1037.69248,543.74678 1040.18166,546.79082 1043.08559,549.15776 C1045.98952,551.5247 1050.07968,553.28141 1053.41418,551.57358 C1046.30524,549.272036 1041.51864,542.615432 1041.59982,535.14365 C1044.87027,535.44439 1054.29002,535.328 1053.78263,529.771 C1053.35271,525.06152 1045.31114,528.25095 1042.50292,528.75926 Z" id="el_mutWvg7nzXC" fill-rule="nonzero"/>
            <path d="M999.71968,567.07638 C1000.30036,563.89152 1003.47646,561.07905 1002.48712,557.99657 C1001.80292,555.86486 999.33127,554.81241 997.09306,554.75985 C994.85485,554.70729 992.65606,555.374 990.41812,555.43678 C988.961443,555.359451 987.501213,555.380191 986.04732,555.49886 C981.60486,556.22911 978.86663,560.88546 974.68004,562.5411 C972.13437,563.54781 969.27453,563.35536 966.62698,564.05131 C960.61707,565.6311 956.8144,571.31016 952.61325,575.88892 C945.825236,583.254046 936.98206,588.411227 927.2292,590.69244 C923.8121,591.48367 920.13875,591.98988 917.42263,594.20918 C913.82582,597.14807 912.94044,602.18632 912.14021,606.76166 C909.929307,619.397582 906.550485,631.801052 902.04721,643.81251 L916.31764,645.63451 C919.03078,645.98092 921.8421,646.3199 924.45654,645.51627 C926.356053,644.7997 928.15529,643.841302 929.80979,642.66476 C936.165397,638.718845 943.278635,636.151218 950.68924,635.12802 C954.42624,634.61497 958.34424,634.52096 961.85116,635.91002 C965.35808,637.29908 968.36668,640.44914 968.66059,644.20968 C971.750749,643.248312 975.119212,644.067541 977.42272,646.34068 C979.657354,648.617544 981.120609,651.538631 981.606,654.69174 C981.9819,656.64408 982.358,658.98337 984.16965,659.8024 C985.64765,660.4706 987.34311,659.75092 988.95996,659.62154 C994.44645,659.18254 998.99918,665.57989 1004.39184,664.47826 C1010.17537,663.29678 1011.59527,654.63515 1017.23751,652.90012 C1020.47806,651.90363 1025.02351,653.11536 1026.57525,650.10104 C1027.94299,647.44419 1025.21418,644.37822 1025.49559,641.40326 C1025.84209,637.7401 1030.16302,636.18526 1033.49406,634.62226 C1044.97806,629.23371 1050.42761,613.77726 1044.86274,602.37769 C1041.56557,595.62347 1035.078,590.30669 1033.87987,582.88676 C1032.95805,577.178 1035.20846,570.52098 1031.5687,566.02745 C1029.71713,563.74157 1026.58217,562.47981 1025.48039,559.75225 C1024.78686,558.03535 1025.06561,556.08737 1024.69239,554.2737 C1024.31917,552.46003 1022.73685,550.5629 1020.94586,551.033 C1015.74697,552.3976 1014.08802,568.45781 1011.30456,572.36 C1007.07342,578.29159 998.38724,574.38442 999.71968,567.07638 Z" id="el_hrlUA_-Ejbs" fill-rule="nonzero"/>
            <path d="M903.62541,534.82736 C901.84878,534.3292 899.9088,533.83846 898.20651,534.55036 C896.50422,535.26226 895.51009,537.76158 896.87634,539.00173 C907.56481,538.58536 918.31872,538.17189 928.91634,539.62342 C941.12651,541.29581 953.21043,545.43842 965.47418,544.21968 C958.46879,542.152959 951.347779,540.500546 944.14812,539.27102 L932.14222,536.97756 C928.921487,536.302979 925.667163,535.800125 922.39303,535.47113 C915.54373,534.90546 910.35968,536.71563 903.62541,534.82736 Z" id="el_QSFWfPt6huL" fill-rule="nonzero"/>
            <path d="M914.32577,497.60144 C913.43844,497.52735 912.33947,497.46352 911.88042,498.22644 C911.44184,498.95537 911.94385,499.91844 911.70801,500.73584 C911.38581,501.85251 909.92337,502.13778 908.77113,501.98575 C907.61889,501.83372 906.37273,501.46962 905.35189,502.02519 C904.288441,502.751622 903.831961,504.092699 904.23139,505.31707 C904.648767,506.500567 905.323778,507.576596 906.20767,508.46744 C907.71739,510.369866 909.437593,512.095296 911.33543,513.61078 C915.00897,516.32241 919.98581,517.62915 922.29954,521.56546 C922.625936,522.32838 923.12762,523.003592 923.76387,523.53629 C924.8746,524.23986 926.32318,523.70461 927.51906,523.15818 L931.71106,521.24277 C932.466168,520.970767 933.14027,520.512307 933.67073,519.90999 C934.62845,518.61051 934.0402,516.76289 933.23635,515.36299 C932.4325,513.96309 931.40353,512.51432 931.57604,510.9093 C931.88361,508.04759 935.56309,506.95296 937.07604,504.50449 C938.60104,502.03649 937.60826,498.85656 937.78404,495.96049 C937.98973,492.57375 940.11782,488.16839 936.69391,485.63797 C933.78402,483.48743 931.00274,485.47452 928.91355,487.84876 C924.50787,492.85553 922.42467,498.27776 914.32577,497.60144 Z" id="el_48q-LBE4CEz" fill-rule="nonzero"/>
            <path d="M939.77134,446.99849 C941.20251,449.73874 944.18607,451.37402 945.7467,454.04266 C947.43829,456.93522 947.24556,460.67253 949.0807,463.47622 C950.96349,466.35274 954.75248,467.87992 955.80839,471.15166 C956.96117,474.72359 954.34561,479.06503 956.43054,482.18603 C957.216681,483.217462 958.399221,483.872084 959.690651,483.990737 C960.982081,484.10939 962.264106,483.681207 963.22503,482.81029 C965.05299,480.81997 964.961741,477.73546 963.01932,475.85668 C961.78488,474.73117 960.01232,474.2448 958.98164,472.93015 C958.444869,472.171467 958.087297,471.300848 957.93587,470.3839 C957.374032,467.738989 957.464029,464.997105 958.1981,462.39473 C958.473898,461.734265 958.543928,461.005935 958.39903,460.30502 C957.93503,458.95629 956.10877,458.8606 954.82703,458.23491 C951.91586,456.81385 951.98651,452.70538 952.49513,449.50601 C952.1565,451.63601 944.56925,448.01327 943.77475,446.80675 C942.19644,444.40994 943.05544,439.78649 942.74299,437.13789 C939.33557,438.77983 938.02152,443.64805 939.77134,446.99849 Z" id="el_jUK7SyWLY7J" fill-rule="nonzero"/>
            <path d="M863.33452,489.16032 C861.93413,487.59263 859.82483,485.95261 857.94737,486.89807 C856.51498,487.61938 856.12096,489.60124 856.68237,491.10352 C857.366293,492.562743 858.419321,493.818136 859.73729,494.74552 C863.64984,497.97233 867.86298,500.88466 871.27629,504.63564 C877.38462,511.34833 880.62044,520.406 887.26353,526.58995 C888.598837,528.023647 890.366957,528.980554 892.29753,529.31435 C894.23294,529.4944 896.40631,528.25554 896.62878,526.32455 C896.81203,524.73391 895.70315,523.31019 894.61949,522.13146 C892.03897,519.32455 889.2139,516.74089 886.77756,513.80797 C885.652365,512.681386 884.945254,511.204594 884.7731,509.62168 C884.76074,508.04248 886.20082,506.3896 887.73086,506.78068 C885.87003,506.30505 884.48999,503.20492 881.75886,502.62216 C879.47642,502.13516 878.92426,503.54816 876.20793,502.38316 C871.0272,500.16117 866.96258,493.22183 863.33452,489.16032 Z" id="el_M0c3mno1gJN" fill-rule="nonzero"/>
            <path d="M985.06661,336.51379 C983.580497,336.072104 982.11942,335.550182 980.68981,334.95032 C976.8432,333.79568 971.75373,336.62304 972.26646,340.60632 C972.60713,343.25289 975.07022,345.03722 976.43046,347.33288 C978.4477,350.73727 977.90992,355.05524 976.84987,358.86778 C976.589619,360.048257 976.094674,361.164358 975.39446,362.14973 C974.415497,363.190043 973.24519,364.031909 971.94758,364.62926 C966.752922,367.542213 962.17187,371.434065 958.45768,376.08966 C958.053872,376.519626 957.772575,377.049886 957.64302,377.62534 C957.45957,378.97023 958.81143,379.94992 959.57573,381.07162 C961.2735,383.56333 960.04638,386.91622 960.21422,389.92668 C960.161771,390.792145 960.560854,391.623134 961.26913,392.12326 C962.29242,392.64306 963.50499,391.76012 964.05963,390.75526 C965.90025,387.42058 964.5137,382.06786 967.96663,380.46003 C968.61979,380.15589 969.41163,380.02767 969.84737,379.4539 C970.53868,378.54369 969.87171,377.19597 970.22205,376.10802 C970.74805,374.47454 972.98218,374.40121 974.69673,374.47366 C977.650216,374.597167 980.602589,374.204114 983.42089,373.3122 C984.526448,373.049321 985.530585,372.467853 986.30889,371.63984 C987.34109,370.35164 987.24961,368.51998 987.04336,366.8822 C986.010289,358.717129 983.42392,350.825259 979.42385,343.63255 C982.45699,344.02001 985.75692,344.35555 988.37429,342.77483 C989.83991,341.88968 991.59744,339.24268 990.87054,337.44102 C989.72101,334.59191 987.6444,336.99007 985.06661,336.51379 Z" id="el_3JBWsxI4eaI" fill-rule="nonzero"/>
            <path d="M596.21765,381.42033 C596.58065,383.36714 596.93747,385.41704 596.29946,387.29181 C595.66145,389.16658 593.65441,390.73305 591.7592,390.15861 C590.28836,389.7128 589.43874,388.23389 588.39432,387.10637 C582.58618,380.83609 569.48211,384.46637 565.89409,376.70899 C564.42974,373.54299 565.4249,369.74999 564.42609,366.40788 C563.130139,362.434955 559.311731,359.840968 555.14082,360.10005 C553.291243,360.367178 551.490945,360.904582 549.79759,361.69505 C538.453358,366.238334 526.543739,369.217084 514.39639,370.54935 C512.087854,370.690003 509.804333,371.105494 507.59421,371.78702 C502.60641,373.59528 499.1984,378.21942 496.77306,382.93808 C494.34772,387.65674 492.55721,392.76519 489.30556,396.95742 C485.8882,401.36332 481.09947,404.44857 476.6325,407.78571 C474.911713,408.894725 473.47885,410.396485 472.45181,412.16742 C471.4834,414.15556 471.53803,416.46807 471.6132,418.67825 L472.52615,445.52194 C472.64358,448.9747 472.79103,452.55088 474.33637,455.64076 C476.26609,459.49919 480.07819,462.02629 482.72278,465.43476 C485.421628,468.937554 486.827491,473.265171 486.70248,477.68532 C486.64619,479.46238 486.46961,481.56425 487.85361,482.68032 C488.69553,483.226188 489.680691,483.509516 490.68397,483.49432 L526.99562,486.46624 C533.3831,486.98902 540.46191,487.84858 544.63218,492.71501 C546.60035,495.01174 548.18141,498.31457 551.19605,498.56101 C552.48914,498.6667 553.74735,498.13589 555.0407,498.03346 C558.30375,497.77503 561.1703,500.25164 562.97938,502.97954 C565.717441,507.137333 566.960307,512.102601 566.50389,517.06001 C566.20726,520.1718 565.24246,523.19701 565.03446,526.31601 C564.243,538.18378 574.30361,548.49458 574.49862,560.38712 C574.61333,567.38243 571.29254,573.91842 568.05495,580.12048 C573.28027,588.03639 569.00151,598.57738 571.08183,607.83148 C573.05548,616.61109 580.37583,623.4843 582.19994,632.29619 C583.035,636.33026 583.08331,641.2946 586.64056,643.37235 C588.201457,644.133146 589.931824,644.479611 591.66531,644.37844 C602.121432,644.502296 612.45834,642.148981 621.83038,637.51102 C626.229,635.32826 630.78759,632.06974 631.55578,627.21977 C632.17528,623.30858 630.19184,618.93372 632.21038,615.52687 C634.58938,611.51156 640.68386,611.82987 644.18418,608.74273 C649.86279,603.73449 645.4347,594.18305 647.7355,586.9695 C649.80364,580.4854 656.92285,577.04064 660.45179,571.22108 C661.840551,568.718295 662.837143,566.017272 663.40679,563.21226 C665.023436,556.508177 666.029731,549.671482 666.41335,542.78591 C666.507391,538.602374 666.815846,534.42641 667.3375,530.27446 C671.14225,506.63671 694.51074,490.80846 702.09777,468.10046 C702.82234,465.93183 703.16261,463.04324 701.23334,461.81613 C700.089006,461.270177 698.791718,461.1344 697.55914,461.43158 L680.82029,463.54191 C678.74119,463.80403 676.53738,464.04902 674.62803,463.18546 C672.71868,462.3219 671.35026,459.90646 672.36303,458.07193 C675.20603,452.92222 669.35789,446.41466 666.75978,441.13718 C659.762687,426.926691 651.430334,413.41366 641.8752,400.7805 C641.263539,400.130617 640.880507,399.298984 640.7842,398.41174 L645.53488,398.56992 C643.93123,392.81553 641.28475,386.51853 635.69424,384.41355 C632.54401,383.2274 629.05537,383.63755 625.69424,383.82121 C616.06708,384.34714 605.74601,382.89362 596.21765,381.42033 Z" id="el_U5kZ1qBqyDB" fill-rule="nonzero"/>
            <path d="M625.70208,251.74458 C628.22128,254.41985 631.04426,257.25629 634.68925,257.72258 C641.12725,258.54625 645.75613,251.88874 648.70325,246.10598 C648.930097,249.171409 651.555825,251.499286 654.62635,251.35719 C656.215505,251.089813 657.732238,250.496833 659.08135,249.61547 C671.837024,242.644675 686.12438,238.951277 700.66027,238.86698 C700.37111,236.586352 701.851154,234.455685 704.08927,233.9306 C707.04469,233.34468 709.7069,235.89986 711.13258,238.55414 C712.55826,241.20842 713.44723,244.28495 715.71232,246.27171 C717.97741,248.25847 722.36279,248.17192 723.25748,245.29488 C724.11642,242.53279 721.23893,240.17731 718.8483,238.54888 C716.45767,236.92045 713.93786,233.90647 715.54776,231.50332 C727.76107,228.79981 740.05014,226.08606 752.54755,225.5487 C754.675264,225.622769 756.795413,225.257539 758.7757,224.4758 C760.68159,223.54053 762.19644,221.4175 761.68393,219.35729 C756.105632,220.668594 750.288447,218.474407 746.96574,213.80573 C764.30674,212.37473 782.75074,211.155 798.11885,219.31466 C799.96303,223.27366 790.56385,226.56752 793.07865,230.13833 C793.8807,231.27719 795.48786,231.41075 796.88055,231.4366 C807.56003,231.63488 818.30115,231.82931 828.86008,230.21697 C832.71876,229.62776 836.61626,228.79597 840.49032,229.27378 C846.94305,230.06959 852.46205,234.37504 858.81032,235.77878 C861.39413,236.35013 864.29126,236.36948 866.46932,234.86665 C868.64738,233.36382 869.58361,229.94186 867.79875,227.98821 C873.77589,222.13009 883.6961,223.58199 891.58141,226.38657 C899.46672,229.19115 906.9369,233.714 915.28274,234.33915 C921.26746,234.78744 927.33534,233.17764 933.24897,234.20085 C936.96511,234.84385 940.42366,236.49706 944.05566,237.51275 C950.92498,239.43375 958.19156,239.02824 965.32382,239.12069 C983.521695,239.365855 1001.52074,242.942383 1018.42987,249.67321 C1020.62951,250.389364 1022.64492,251.580108 1024.33354,253.16121 C1025.90688,254.84606 1026.70928,257.46421 1025.65183,259.51263 L1008.17911,256.95963 C1009.82538,260.20044 1014.08438,260.75271 1017.54311,261.87072 C1021.00184,262.98873 1024.58801,266.80831 1022.50941,269.79032 C1018.76185,268.59708 1015.3658,272.34389 1013.47273,275.79126 C1011.57966,279.23863 1009.27273,283.36726 1005.34541,283.57726 C1001.8286,283.76532 997.57534,280.7708 995.28302,283.44449 C998.449953,287.439669 1001.16185,291.775293 1003.36852,296.37111 C1005.63323,301.08923 1007.24627,307.03422 1004.18528,311.2792 C1003.70371,312.037001 1002.97326,312.603438 1002.11943,312.8812 C999.61953,313.51406 997.99525,310.45581 996.20243,308.6022 C993.94331,306.26637 990.52683,305.60477 987.46748,304.5093 C984.40813,303.41383 981.18537,301.25885 980.946,298.01811 C980.79707,296.0018 981.86163,294.12746 982.64576,292.26392 C983.963711,289.12282 984.540107,285.720259 984.33021,282.32034 C984.15856,279.58509 983.39159,276.73983 981.42721,274.82871 C979.46283,272.91759 976.07132,272.31132 973.96249,274.06171 C972.97849,274.87844 972.1899,276.18486 970.91206,276.23371 C968.65423,276.32009 966.92068,272.38371 965.10417,273.72742 C965.317302,275.159161 965.020437,276.620266 964.26547,277.85531 C958.84484,282.56969 950.51747,280.57524 943.52924,282.24061 C940.20623,283.191617 937.024705,284.581029 934.0686,286.37219 C932.962766,286.845043 932.021787,287.634881 931.36442,288.64202 C930.49211,290.33718 931.45386,292.50823 932.99142,293.63535 C934.621979,294.635392 936.454292,295.260807 938.35601,295.46642 C946.87551,297.07994 955.51928,299.57773 962.24543,305.04987 C968.97158,310.52201 973.38243,319.56777 971.25397,327.97343 L954.45312,311.91981 C955.09124,318.660377 955.453367,325.41951 955.5395,332.19721 C955.64814,333.52058 955.466384,334.851708 955.00694,336.09751 C953.80921,338.74296 950.563,339.63318 947.71838,340.21717 C946.118064,340.521211 944.723828,341.494359 943.886598,342.891677 C943.049368,344.288996 942.848881,345.977402 943.3356,347.53193 C944.34628,350.82624 946.86629,353.39464 949.17373,355.95386 C951.48117,358.51308 953.75188,361.42174 954.05395,364.85433 C954.35602,368.28692 951.76629,372.15599 948.32872,371.91733 C945.72278,371.73639 943.78942,369.40355 942.6779,367.03962 C941.56638,364.67569 940.905,362.04233 939.2349,360.03373 C934.17996,353.95417 922.8259,356.55891 918.29746,350.07762 C915.950503,352.739876 915.149199,356.427454 916.17967,359.82362 C918.28638,358.50478 921.17043,359.73015 922.75326,361.64645 C924.33609,363.56275 925.0828,366.01958 926.32583,368.17189 C928.00317,371.07619 930.6726,373.65089 930.90673,376.99661 C930.844658,378.261739 930.865984,379.529584 930.97057,380.79191 C931.38646,382.81911 933.09991,384.27471 934.28791,385.96916 C937.05222,389.91188 936.91563,395.32823 935.13391,399.80172 C933.35219,404.27521 930.1512,408.01324 926.98067,411.63735 C921.44293,417.96735 915.79216,424.26024 909.22698,429.51697 C907.35365,431.01697 905.35438,432.49189 904.18764,434.58897 C903.0209,436.68605 902.96107,439.62961 904.75398,441.22483 C903.47111,441.28908 901.17043,441.92005 899.88756,441.9843 C899.436533,436.837985 899.338507,431.666821 899.59417,426.50711 C894.53155,424.07623 889.08056,430.58624 889.73385,436.16411 C890.38714,441.74198 894.42151,446.21811 897.29385,451.04395 C899.39434,454.57295 900.95538,458.68786 900.25412,462.73437 C899.55286,466.78088 895.94077,470.51382 891.84948,470.15693 C885.34181,469.58927 882.61974,460.24687 876.17548,459.17767 C875.607113,459.044231 875.010515,459.103461 874.47948,459.34605 C873.52287,459.87105 873.35659,461.15105 873.30288,462.24092 C873.03923,467.59007 872.81096,473.15185 874.89908,478.08365 C877.95386,485.29858 885.84552,491.35827 884.19008,499.01637 C875.27224,494.87101 870.6356,484.87023 868.53041,475.26397 C866.42522,465.65771 866.07436,455.57297 862.30066,446.49163 C859.43516,450.16441 853.41219,447.12823 850.79405,443.27521 C848.31192,439.62234 846.7837,435.39676 844.37553,431.69471 C841.96736,427.99266 838.27825,424.67771 833.86653,424.47415 C829.24107,424.26069 825.22953,427.43486 821.7017,430.43401 C818.80077,432.90021 815.82239,435.46346 814.1267,438.87258 C811.65913,443.83346 812.30461,449.6818 812.1857,455.22121 C812.05712,461.20982 810.78796,467.5283 806.70637,471.91242 C802.62478,476.29654 795.09106,477.82357 790.58907,473.87237 C788.23872,471.80956 787.10072,468.7276 786.08707,465.76927 C781.200962,451.508957 777.131672,436.981725 773.899,422.25826 C773.14253,425.61875 770.19168,429.95009 767.37271,427.97057 C766.740169,427.438428 766.227709,426.778155 765.86917,426.03335 C760.61086,417.12118 750.87303,411.77555 741.03417,408.57035 C731.19531,405.36515 720.84358,403.87006 711.11383,400.34747 C705.661349,398.372653 700.453546,395.778544 695.59266,392.61607 C693.068241,396.324974 692.781786,401.119746 694.84666,405.10283 C697.00494,408.92439 701.88892,411.1355 706.06966,409.79972 C708.23011,409.10943 710.0546,407.60963 712.19828,406.86888 C714.34196,406.12813 717.21921,406.49188 718.15659,408.5572 C719.05384,410.53405 717.69765,412.92549 718.3704,414.98956 C719.39504,418.13325 724.1364,418.37545 725.79435,421.23619 C727.02793,423.36466 726.01293,426.1911 724.25161,427.90862 C722.49029,429.62614 720.14031,430.56814 717.99027,431.76373 C711.01406,435.64301 706.05314,442.26524 699.95635,447.41747 C693.85956,452.5697 685.25769,456.33134 677.99172,453.02647 C679.72372,444.25632 669.27672,437.81752 667.35483,429.08702 C666.72224,426.21345 667.05017,423.16094 666.14705,420.3606 C664.83949,416.30615 661.24239,413.51847 658.29148,410.44593 C651.060605,402.83528 647.211665,392.625818 647.61861,382.13573 C647.77807,378.52754 648.44097,374.86058 647.61896,371.34365 C646.79695,367.82672 643.88516,364.42272 640.27696,364.58211 C632.03589,364.94611 621.65391,365.55911 617.33018,358.53395 C615.78703,356.02664 615.11549,352.3544 617.3466,350.43344 C618.92051,349.07833 621.24378,349.20598 623.3107,349.40931 L641.87902,351.23591 C646.22188,351.66313 650.91641,352.0157 654.64311,349.74531 C658.36981,347.47492 659.98462,341.44831 656.53384,338.7772 C654.01248,336.82549 649.49512,336.93132 648.76219,333.8282 C648.15178,331.24379 651.01236,328.31146 649.46738,326.15164 C648.35959,324.603 645.86904,325.03264 644.35985,326.19358 C642.85066,327.35452 641.75567,329.0523 640.06664,329.9313 C637.10373,331.4733 633.56348,330.00576 630.37574,329.00838 C627.188,328.011 622.91449,327.9263 621.36831,330.88701 C619.63911,334.1982 622.9021,338.53701 621.18598,341.85496 C618.91708,346.24171 611.2334,343.74445 608.04692,347.51775 C604.39047,351.84758 610.53503,358.30397 609.30192,363.83538 C606.099473,365.421413 602.29917,365.207902 599.29453,363.27314 C596.334626,361.259917 594.720777,357.78278 595.09389,354.2226 C595.39912,351.7343 596.6964,349.19428 595.82718,346.84284 C595.1244,344.94166 593.21554,343.80984 591.44147,342.82946 L573.39724,332.85838 C571.72196,335.96612 573.83989,339.81888 576.48868,342.15309 C579.13747,344.4873 582.45519,346.24534 584.19523,349.31729 C586.480103,353.735357 584.929353,359.16862 580.65669,361.71505 C580.134697,362.075356 579.481234,362.189344 578.86808,362.02705 C578.286451,361.685273 577.86799,361.122558 577.70808,360.46717 C574.52434,352.31979 569.74431,344.28681 562.10219,340.03075 C554.46007,335.77469 543.47913,336.64975 538.46776,343.8193 C537.27745,345.52221 536.47857,347.4633 535.44165,349.26371 C529.93265,358.82904 518.12228,363.35858 507.08795,363.06271 C506.008505,363.12241 504.934695,362.870081 503.99481,362.33587 C502.2115,361.10422 502.29181,358.4907 502.56481,356.34066 L503.72307,347.21638 C503.95566,345.38416 504.29269,343.35896 505.74285,342.21522 C507.78702,340.60298 510.73585,341.62042 513.33908,341.58293 C517.37916,341.393796 520.870207,338.699553 522.07708,334.83931 C523.148831,330.961042 521.986223,326.808137 519.05662,324.05005 C517.86347,322.92939 516.262,321.52168 516.8922,320.01094 C517.40124,319.165009 518.258539,318.587712 519.2338,318.43413 C523.90988,317.07621 528.8508,316.72029 533.44892,315.11805 C538.04704,313.51581 542.50622,310.23768 543.59515,305.49175 C543.92886,304.03734 544.08079,302.27551 545.3872,301.55443 C546.042711,301.277665 546.746661,301.13384 547.4582,301.1313 C552.62537,300.396181 556.376262,295.837542 556.10245,290.62553 C558.30609,289.08574 561.39345,290.21841 563.52531,291.85615 C565.65717,293.49389 567.53931,295.65763 570.13331,296.36361 C574.96745,297.67931 579.63911,293.39917 584.64905,293.37933 C586.75588,293.37099 588.93687,294.11592 590.91894,293.40164 C592.92827,292.67753 594.1282,290.67734 595.67035,289.19964 C597.2125,287.72194 599.91841,286.82064 601.34241,288.4125 L600.1298,279.4305 C605.070469,280.678638 610.309468,279.731462 614.50035,276.8324 L598.82835,271.53709 C598.282663,271.400852 597.779185,271.131653 597.36284,270.75351 C596.22345,269.52661 597.35516,267.61471 598.28167,266.22004 C600.49812,262.88362 600.87019,257.38773 597.2253,255.72668 C594.73741,254.5929 591.88172,255.95384 589.49378,257.28531 L578.05519,263.66326 C577.69169,265.83753 580.35056,267.06978 581.99819,268.53434 C584.038603,270.348048 584.754345,273.229404 583.799803,275.787073 C582.845261,278.344742 580.416771,280.052646 577.68699,280.08608 C579.212787,282.069752 579.754094,284.639469 579.15816,287.07008 L571.46199,287.62359 C570.598241,287.797368 569.70082,287.622211 568.96581,287.13639 C568.14268,286.40534 568.25431,285.12428 568.06353,284.04004 C567.60307,281.42312 565.04063,279.58898 562.42547,279.11869 C559.81031,278.6484 557.13494,279.25121 554.54535,279.84643 C553.445756,280.242123 552.23823,280.214256 551.15806,279.76826 C550.53867,279.365889 550.068014,278.771833 549.81798,278.07683 C548.68267,275.32408 549.74386,272.08846 551.56726,269.73437 C553.39066,267.38028 555.88678,265.65937 558.12856,263.69958 C563.489554,258.995758 567.428355,252.886514 569.50002,246.06197 C573.73678,244.28684 578.12302,241.87497 582.35973,240.0998 C588.891628,236.792713 596.216619,235.373485 603.51099,236.00171 L617.85907,236.27577 C622.10707,236.35691 626.46998,236.46088 630.39801,238.08037 C634.32604,239.69986 637.7775,243.20259 638.04869,247.44271 C638.214972,248.418518 637.867377,249.411218 637.12869,250.07015 C636.573963,250.372883 635.94565,250.514507 635.31469,250.47903 C631.35292,250.61826 629.66376,251.6054 625.70208,251.74458 Z" id="el_tFekC3Bzbb0" fill-rule="nonzero"/>
            <path d="M511.33861,296.712 C512.481395,295.630231 512.923328,294.000256 512.48348,292.48939 C509.701161,291.415704 506.550779,292.010587 504.35157,294.02493 C503.50156,294.884703 502.769013,295.853135 502.17299,296.90503 C500.2876,299.98103 498.61999,303.65524 499.71264,307.09365 C499.892538,307.851153 500.370028,308.504237 501.03728,308.90542 C501.526977,309.101971 502.054937,309.18467 502.58128,309.14727 C504.65828,309.144571 506.733236,309.01686 508.79489,308.76483 C510.06098,308.61003 511.53152,308.25249 512.02082,307.07456 C512.66401,305.52616 511.10724,303.77382 511.56107,302.15973 C511.859644,301.437934 512.312106,300.789972 512.88689,300.26105 C513.465029,299.721069 513.754786,298.940142 513.66879,298.15374 C513.48564,297.39639 512.32598,296.96674 511.90853,297.62474" id="el__ZuUhI4QqEw" fill-rule="nonzero"/>
            <path d="M522.10879,282.74866 C520.263672,282.325004 518.361743,282.205568 516.47812,282.39507 C516.061531,282.382663 515.64864,282.476495 515.27833,282.66773 C514.919525,282.932337 514.659319,283.309149 514.53897,283.73842 C513.714003,286.386382 515.062022,289.223812 517.63587,290.25705 C518.312341,290.412576 518.960318,290.67297 519.5563,291.02879 C521.14882,292.26438 520.1336,294.78993 520.43507,296.78289 C520.77359,299.02081 522.93983,300.8993 522.54267,303.12756 C522.22978,304.88305 520.35482,306.2731 520.65667,308.03056 C520.97284,309.87123 523.30856,310.42433 525.17036,310.57173 C526.249365,310.760674 527.359992,310.633386 528.36827,310.20522 C529.378891,309.514171 530.097673,308.473225 530.38586,307.28333 C531.14808,305.014546 531.468369,302.620691 531.32939,300.23133 C531.321186,299.144604 531.048243,298.076252 530.53419,297.11876 C529.97354,296.360218 529.352064,295.648581 528.67592,294.9909 C525.10888,290.84169 528.86475,284.65263 522.10879,282.74866 Z" id="el_0rJ-kBx2y1h" fill-rule="nonzero"/>
            <path d="M326.5,556.5 C355.898071,491.017517 383.94956,444.582909 410.654468,417.196174 C437.359375,389.809439 487.641219,355.910715 561.5,315.5" id="el_4syHpIcFIr2" stroke-linecap="square"/>
            <path d="M213.573358,310.656812 C200.142214,355.231971 200.142214,393.240873 213.573358,424.683519 C221.03079,442.141554 230.553809,473.996831 252.11697,501.214871 C263.632296,515.750059 288.426639,534.178436 326.5,556.5" id="el_TcatsB4Z-KO" stroke-linecap="square"/>
            <path d="M561.5,315.148912 C589.396745,353.863321 630.11217,379.625195 683.646274,392.434534 C714.668199,399.857285 760.284737,411.243944 800.317523,410.064028 C819.685013,409.493196 847.745839,403.616698 884.5,392.434534" id="el_v5MlYjMAsc2" stroke-linecap="square"/>
            <path d="M886.996094,392.277122 C921.740434,406.956688 945.283768,426.138434 957.626097,449.822362 C965.282387,464.514162 983.166467,498.19433 991.040023,534.595857 C994.252701,549.448913 994.296213,573.844693 991.17056,607.783197" id="el_ISTiSkK_6Y_" stroke-linecap="square"/>
            <path d="M990.188477,609.636719 C961.073931,629.085256 913.942189,635.061229 848.793251,627.564639 C814.478925,623.616141 771.484616,619.051852 731.280418,607.78414 C707.195612,601.034082 671.070238,587.434486 622.904297,566.985352" id="el_8IYLrV69pPb" stroke-linecap="square"/>
            <path d="M621.5,565.5 C607.050394,500.903602 568.725209,449.119907 506.524446,410.148912 C473.526734,389.47467 414.54888,352.124975 361.771595,334.689861 C330.632917,324.403118 281.542386,316.33983 214.5,310.5" id="el_p4lTeQTI65x" stroke-linecap="square"/>
            <g id="el_ZpZW1U1fSIP_an_ON0k6EzxC" data-animator-group="true" data-animator-type="2"><circle id="el_ZpZW1U1fSIP" fill-rule="nonzero" cx="214.07353" cy="310.64667" r="11.96804"/></g>
            <g id="el_YG_HOr9pYPa_an_XzIDPP_yE" data-animator-group="true" data-animator-type="2"><circle id="el_YG_HOr9pYPa" fill-rule="nonzero" cx="325.96804" cy="555.96804" r="11.96804"/></g>
            <g id="el_ns1INrq3g4H_an_uGTrU8NO4" data-animator-group="true" data-animator-type="2"><circle id="el_ns1INrq3g4H" fill-rule="nonzero" cx="886.96804" cy="391.96804" r="11.96804"/></g>
            <g id="el_C-UukeibMJk_an_CvrmEBVjS" data-animator-group="true" data-animator-type="2"><circle id="el_C-UukeibMJk" fill-rule="nonzero" cx="991.17056" cy="607.78414" r="11.96804"/></g>
            <g id="el_0-6IqflB8Ck_an_4_MVZCnzs" data-animator-group="true" data-animator-type="2"><circle id="el_0-6IqflB8Ck" fill-rule="nonzero" cx="561.96804" cy="315.96804" r="11.96804"/></g>
            <g id="el_0Gb0y0vYB8-_an__oEh-waDo" data-animator-group="true" data-animator-type="2"><circle id="el_0Gb0y0vYB8-" fill-rule="nonzero" cx="621.96804" cy="565.96804" r="11.96804"/></g>
        </g>
    </g>
</svg>